M48
; DRILL file {KiCad 9.0.7} date 2026-03-05T17:38:51-0600
; FORMAT={-:-/ absolute / metric / decimal}
; #@! TF.CreationDate,2026-03-05T17:38:51-06:00
; #@! TF.GenerationSoftware,Kicad,Pcbnew,9.0.7
; #@! TF.FileFunction,Plated,1,2,PTH
FMAT,2
METRIC
; #@! TA.AperFunction,Plated,PTH,ComponentDrill
T1C0.200
; #@! TA.AperFunction,Plated,PTH,ViaDrill
T2C0.300
; #@! TA.AperFunction,Plated,PTH,ComponentDrill
T3C0.600
; #@! TA.AperFunction,Plated,PTH,ComponentDrill
T4C1.000
%
G90
G05
T1
X123.8Y-46.4
X123.8Y-47.8
X124.5Y-45.7
X124.5Y-47.1
X124.5Y-48.5
X125.2Y-46.4
X125.2Y-47.8
X125.9Y-45.7
X125.9Y-47.1
X125.9Y-48.5
X126.6Y-46.4
X126.6Y-47.8
T2
X113.0Y-60.25
X113.6Y-79.15
X113.6Y-86.1
X113.6Y-90.05
X113.65Y-82.9
X114.95Y-73.15
X115.0Y-62.75
X115.05Y-68.35
X115.1Y-65.6
X115.1Y-71.0
X115.85Y-79.35
X116.05Y-38.05
X116.05Y-82.85
X116.2Y-86.2
X116.2Y-90.05
X116.95Y-93.3
X117.1Y-60.55
X117.8Y-85.3
X118.65Y-86.4
X119.2Y-61.8
X119.6Y-71.8
X120.25Y-69.15
X121.2Y-60.85
X121.25Y-82.45
X121.55Y-55.1
X121.95Y-48.95
X122.0Y-46.0
X122.176Y-59.876
X122.95Y-58.7
X123.05Y-41.2
X123.15Y-52.45
X123.25Y-50.05
X123.35Y-43.65
X123.458Y-62.808
X123.75Y-93.3
X124.55Y-80.4
X124.6Y-58.65
X124.8Y-63.45
X125.2Y-41.2
X125.2Y-82.2
X125.25Y-43.65
X125.8Y-52.55
X125.95Y-58.6
X126.05Y-50.15
X126.15Y-60.1
X126.75Y-86.4
X127.2Y-55.45
X127.3Y-58.45
X127.55Y-43.65
X127.7Y-41.4
X127.8Y-62.65
X127.8Y-82.175
X127.9Y-87.05
X127.95Y-52.55
X128.098Y-58.503
X128.3Y-50.15
X128.4Y-80.05
X128.5Y-77.4
X129.25Y-83.1
X129.35Y-75.2
X129.95Y-43.4
X130.0Y-41.35
X130.2Y-46.75
X130.25Y-50.15
X130.5Y-52.55
X130.5Y-66.4
X131.55Y-76.95
X131.65Y-63.3
X131.7Y-86.8
X131.8Y-82.65
X131.9Y-79.35
X132.3Y-41.35
X132.35Y-43.55
X132.5Y-46.5
X132.55Y-49.45
X132.55Y-52.6
X133.85Y-82.55
X134.25Y-86.8
X134.3Y-73.7
X134.35Y-71.5
X134.55Y-76.95
X134.8Y-79.35
X135.75Y-63.15
X136.05Y-37.75
X140.85Y-68.091
X144.9Y-73.741
X144.95Y-62.391
X145.0Y-76.491
X145.6Y-83.341
X146.908Y-81.566
X147.25Y-74.891
X147.35Y-67.491
X147.45Y-80.441
X147.9Y-70.992
X148.0Y-69.641
X148.05Y-74.891
X148.2Y-79.141
X148.65Y-76.641
X148.7Y-64.791
X148.9Y-79.741
X150.65Y-64.741
X150.7Y-71.892
X150.8Y-74.491
X151.3Y-81.891
X151.806Y-74.586
X152.7Y-74.491
X153.05Y-64.741
X153.1Y-78.291
X153.45Y-79.8
X153.5Y-74.691
X154.1Y-77.041
X154.273Y-74.485
X154.85Y-64.691
X155.1Y-74.391
X155.45Y-71.741
X155.95Y-81.041
X156.4Y-65.041
X156.7Y-72.141
X157.7Y-74.991
X158.95Y-74.391
X159.25Y-61.991
X160.35Y-66.791
X160.35Y-68.941
X160.55Y-63.391
X161.85Y-61.791
X162.35Y-64.991
X162.65Y-67.841
X162.65Y-74.766
X163.75Y-81.991
X165.55Y-61.241
X165.7Y-81.091
X166.9Y-67.941
X167.6Y-64.841
X167.9Y-81.991
X169.4Y-60.941
X170.1Y-84.391
X170.15Y-80.091
X170.35Y-75.591
X170.45Y-58.441
X170.85Y-61.191
X170.85Y-76.891
X173.35Y-84.391
X173.85Y-78.191
X174.0Y-76.441
X174.05Y-80.141
X174.05Y-82.041
X174.1Y-74.641
X175.2Y-61.291
X175.7Y-71.191
X177.35Y-83.991
X177.4Y-64.941
X178.8Y-60.941
X178.85Y-62.841
X178.85Y-77.591
X179.4Y-80.091
X181.05Y-66.241
X181.1Y-62.641
X181.2Y-77.091
X181.3Y-71.441
T4
X113.95Y-56.54
X113.95Y-59.08
X113.95Y-61.62
X113.95Y-64.16
X113.95Y-66.7
X113.95Y-69.24
X113.95Y-71.78
X113.95Y-74.32
X142.05Y-64.251
X142.05Y-66.791
X142.05Y-69.331
X142.05Y-71.871
X142.05Y-74.411
X142.05Y-76.951
X142.05Y-79.491
X142.05Y-82.031
T3
G00X125.675Y-88.182
M15
G01X125.675Y-89.282
M16
G05
G00X125.675Y-92.502
M15
G01X125.675Y-93.302
M16
G05
G00X134.325Y-88.182
M15
G01X134.325Y-89.282
M16
G05
G00X134.325Y-92.502
M15
G01X134.325Y-93.302
M16
G05
G00X175.392Y-73.766
M15
G01X176.492Y-73.766
M16
G05
G00X175.392Y-82.416
M15
G01X176.492Y-82.416
M16
G05
G00X179.713Y-73.766
M15
G01X180.512Y-73.766
M16
G05
G00X179.713Y-82.416
M15
G01X180.512Y-82.416
M16
G05
M30
