%TF.GenerationSoftware,KiCad,Pcbnew,9.0.7*%
%TF.CreationDate,2026-03-05T17:38:49-06:00*%
%TF.ProjectId,CustomESP32,43757374-6f6d-4455-9350-33322e6b6963,rev?*%
%TF.SameCoordinates,Original*%
%TF.FileFunction,Legend,Top*%
%TF.FilePolarity,Positive*%
%FSLAX46Y46*%
G04 Gerber Fmt 4.6, Leading zero omitted, Abs format (unit mm)*
G04 Created by KiCad (PCBNEW 9.0.7) date 2026-03-05 17:38:49*
%MOMM*%
%LPD*%
G01*
G04 APERTURE LIST*
%ADD10C,0.150000*%
%ADD11C,0.080000*%
%ADD12C,0.120200*%
%ADD13C,0.127000*%
%ADD14C,0.200000*%
%ADD15C,0.120000*%
%ADD16C,0.100000*%
G04 APERTURE END LIST*
D10*
X162582214Y-84856153D02*
X162582214Y-83853271D01*
X162582214Y-83853271D02*
X162820995Y-83853271D01*
X162820995Y-83853271D02*
X162964264Y-83901027D01*
X162964264Y-83901027D02*
X163059777Y-83996540D01*
X163059777Y-83996540D02*
X163107533Y-84092052D01*
X163107533Y-84092052D02*
X163155289Y-84283077D01*
X163155289Y-84283077D02*
X163155289Y-84426346D01*
X163155289Y-84426346D02*
X163107533Y-84617371D01*
X163107533Y-84617371D02*
X163059777Y-84712884D01*
X163059777Y-84712884D02*
X162964264Y-84808397D01*
X162964264Y-84808397D02*
X162820995Y-84856153D01*
X162820995Y-84856153D02*
X162582214Y-84856153D01*
X164110415Y-84856153D02*
X163537340Y-84856153D01*
X163823877Y-84856153D02*
X163823877Y-83853271D01*
X163823877Y-83853271D02*
X163728365Y-83996540D01*
X163728365Y-83996540D02*
X163632852Y-84092052D01*
X163632852Y-84092052D02*
X163537340Y-84139809D01*
X165065541Y-84856153D02*
X164492466Y-84856153D01*
X164779003Y-84856153D02*
X164779003Y-83853271D01*
X164779003Y-83853271D02*
X164683491Y-83996540D01*
X164683491Y-83996540D02*
X164587978Y-84092052D01*
X164587978Y-84092052D02*
X164492466Y-84139809D01*
X123509777Y-62181153D02*
X123509777Y-61178271D01*
X123509777Y-61178271D02*
X123748558Y-61178271D01*
X123748558Y-61178271D02*
X123891827Y-61226027D01*
X123891827Y-61226027D02*
X123987340Y-61321540D01*
X123987340Y-61321540D02*
X124035096Y-61417052D01*
X124035096Y-61417052D02*
X124082852Y-61608077D01*
X124082852Y-61608077D02*
X124082852Y-61751346D01*
X124082852Y-61751346D02*
X124035096Y-61942371D01*
X124035096Y-61942371D02*
X123987340Y-62037884D01*
X123987340Y-62037884D02*
X123891827Y-62133397D01*
X123891827Y-62133397D02*
X123748558Y-62181153D01*
X123748558Y-62181153D02*
X123509777Y-62181153D01*
X124990222Y-61178271D02*
X124512659Y-61178271D01*
X124512659Y-61178271D02*
X124464903Y-61655834D01*
X124464903Y-61655834D02*
X124512659Y-61608077D01*
X124512659Y-61608077D02*
X124608172Y-61560321D01*
X124608172Y-61560321D02*
X124846953Y-61560321D01*
X124846953Y-61560321D02*
X124942466Y-61608077D01*
X124942466Y-61608077D02*
X124990222Y-61655834D01*
X124990222Y-61655834D02*
X125037978Y-61751346D01*
X125037978Y-61751346D02*
X125037978Y-61990128D01*
X125037978Y-61990128D02*
X124990222Y-62085640D01*
X124990222Y-62085640D02*
X124942466Y-62133397D01*
X124942466Y-62133397D02*
X124846953Y-62181153D01*
X124846953Y-62181153D02*
X124608172Y-62181153D01*
X124608172Y-62181153D02*
X124512659Y-62133397D01*
X124512659Y-62133397D02*
X124464903Y-62085640D01*
X161182142Y-63104819D02*
X160848809Y-62628628D01*
X160610714Y-63104819D02*
X160610714Y-62104819D01*
X160610714Y-62104819D02*
X160991666Y-62104819D01*
X160991666Y-62104819D02*
X161086904Y-62152438D01*
X161086904Y-62152438D02*
X161134523Y-62200057D01*
X161134523Y-62200057D02*
X161182142Y-62295295D01*
X161182142Y-62295295D02*
X161182142Y-62438152D01*
X161182142Y-62438152D02*
X161134523Y-62533390D01*
X161134523Y-62533390D02*
X161086904Y-62581009D01*
X161086904Y-62581009D02*
X160991666Y-62628628D01*
X160991666Y-62628628D02*
X160610714Y-62628628D01*
X162134523Y-63104819D02*
X161563095Y-63104819D01*
X161848809Y-63104819D02*
X161848809Y-62104819D01*
X161848809Y-62104819D02*
X161753571Y-62247676D01*
X161753571Y-62247676D02*
X161658333Y-62342914D01*
X161658333Y-62342914D02*
X161563095Y-62390533D01*
X162991666Y-62438152D02*
X162991666Y-63104819D01*
X162753571Y-62057200D02*
X162515476Y-62771485D01*
X162515476Y-62771485D02*
X163134523Y-62771485D01*
X177607142Y-63329819D02*
X177273809Y-62853628D01*
X177035714Y-63329819D02*
X177035714Y-62329819D01*
X177035714Y-62329819D02*
X177416666Y-62329819D01*
X177416666Y-62329819D02*
X177511904Y-62377438D01*
X177511904Y-62377438D02*
X177559523Y-62425057D01*
X177559523Y-62425057D02*
X177607142Y-62520295D01*
X177607142Y-62520295D02*
X177607142Y-62663152D01*
X177607142Y-62663152D02*
X177559523Y-62758390D01*
X177559523Y-62758390D02*
X177511904Y-62806009D01*
X177511904Y-62806009D02*
X177416666Y-62853628D01*
X177416666Y-62853628D02*
X177035714Y-62853628D01*
X178559523Y-63329819D02*
X177988095Y-63329819D01*
X178273809Y-63329819D02*
X178273809Y-62329819D01*
X178273809Y-62329819D02*
X178178571Y-62472676D01*
X178178571Y-62472676D02*
X178083333Y-62567914D01*
X178083333Y-62567914D02*
X177988095Y-62615533D01*
X178892857Y-62329819D02*
X179511904Y-62329819D01*
X179511904Y-62329819D02*
X179178571Y-62710771D01*
X179178571Y-62710771D02*
X179321428Y-62710771D01*
X179321428Y-62710771D02*
X179416666Y-62758390D01*
X179416666Y-62758390D02*
X179464285Y-62806009D01*
X179464285Y-62806009D02*
X179511904Y-62901247D01*
X179511904Y-62901247D02*
X179511904Y-63139342D01*
X179511904Y-63139342D02*
X179464285Y-63234580D01*
X179464285Y-63234580D02*
X179416666Y-63282200D01*
X179416666Y-63282200D02*
X179321428Y-63329819D01*
X179321428Y-63329819D02*
X179035714Y-63329819D01*
X179035714Y-63329819D02*
X178940476Y-63282200D01*
X178940476Y-63282200D02*
X178892857Y-63234580D01*
X131657142Y-68614819D02*
X131323809Y-68138628D01*
X131085714Y-68614819D02*
X131085714Y-67614819D01*
X131085714Y-67614819D02*
X131466666Y-67614819D01*
X131466666Y-67614819D02*
X131561904Y-67662438D01*
X131561904Y-67662438D02*
X131609523Y-67710057D01*
X131609523Y-67710057D02*
X131657142Y-67805295D01*
X131657142Y-67805295D02*
X131657142Y-67948152D01*
X131657142Y-67948152D02*
X131609523Y-68043390D01*
X131609523Y-68043390D02*
X131561904Y-68091009D01*
X131561904Y-68091009D02*
X131466666Y-68138628D01*
X131466666Y-68138628D02*
X131085714Y-68138628D01*
X132609523Y-68614819D02*
X132038095Y-68614819D01*
X132323809Y-68614819D02*
X132323809Y-67614819D01*
X132323809Y-67614819D02*
X132228571Y-67757676D01*
X132228571Y-67757676D02*
X132133333Y-67852914D01*
X132133333Y-67852914D02*
X132038095Y-67900533D01*
X132990476Y-67710057D02*
X133038095Y-67662438D01*
X133038095Y-67662438D02*
X133133333Y-67614819D01*
X133133333Y-67614819D02*
X133371428Y-67614819D01*
X133371428Y-67614819D02*
X133466666Y-67662438D01*
X133466666Y-67662438D02*
X133514285Y-67710057D01*
X133514285Y-67710057D02*
X133561904Y-67805295D01*
X133561904Y-67805295D02*
X133561904Y-67900533D01*
X133561904Y-67900533D02*
X133514285Y-68043390D01*
X133514285Y-68043390D02*
X132942857Y-68614819D01*
X132942857Y-68614819D02*
X133561904Y-68614819D01*
X127557142Y-62054819D02*
X127223809Y-61578628D01*
X126985714Y-62054819D02*
X126985714Y-61054819D01*
X126985714Y-61054819D02*
X127366666Y-61054819D01*
X127366666Y-61054819D02*
X127461904Y-61102438D01*
X127461904Y-61102438D02*
X127509523Y-61150057D01*
X127509523Y-61150057D02*
X127557142Y-61245295D01*
X127557142Y-61245295D02*
X127557142Y-61388152D01*
X127557142Y-61388152D02*
X127509523Y-61483390D01*
X127509523Y-61483390D02*
X127461904Y-61531009D01*
X127461904Y-61531009D02*
X127366666Y-61578628D01*
X127366666Y-61578628D02*
X126985714Y-61578628D01*
X128509523Y-62054819D02*
X127938095Y-62054819D01*
X128223809Y-62054819D02*
X128223809Y-61054819D01*
X128223809Y-61054819D02*
X128128571Y-61197676D01*
X128128571Y-61197676D02*
X128033333Y-61292914D01*
X128033333Y-61292914D02*
X127938095Y-61340533D01*
X129461904Y-62054819D02*
X128890476Y-62054819D01*
X129176190Y-62054819D02*
X129176190Y-61054819D01*
X129176190Y-61054819D02*
X129080952Y-61197676D01*
X129080952Y-61197676D02*
X128985714Y-61292914D01*
X128985714Y-61292914D02*
X128890476Y-61340533D01*
X148534819Y-77384246D02*
X148058628Y-77717579D01*
X148534819Y-77955674D02*
X147534819Y-77955674D01*
X147534819Y-77955674D02*
X147534819Y-77574722D01*
X147534819Y-77574722D02*
X147582438Y-77479484D01*
X147582438Y-77479484D02*
X147630057Y-77431865D01*
X147630057Y-77431865D02*
X147725295Y-77384246D01*
X147725295Y-77384246D02*
X147868152Y-77384246D01*
X147868152Y-77384246D02*
X147963390Y-77431865D01*
X147963390Y-77431865D02*
X148011009Y-77479484D01*
X148011009Y-77479484D02*
X148058628Y-77574722D01*
X148058628Y-77574722D02*
X148058628Y-77955674D01*
X148534819Y-76431865D02*
X148534819Y-77003293D01*
X148534819Y-76717579D02*
X147534819Y-76717579D01*
X147534819Y-76717579D02*
X147677676Y-76812817D01*
X147677676Y-76812817D02*
X147772914Y-76908055D01*
X147772914Y-76908055D02*
X147820533Y-77003293D01*
X147534819Y-75812817D02*
X147534819Y-75717579D01*
X147534819Y-75717579D02*
X147582438Y-75622341D01*
X147582438Y-75622341D02*
X147630057Y-75574722D01*
X147630057Y-75574722D02*
X147725295Y-75527103D01*
X147725295Y-75527103D02*
X147915771Y-75479484D01*
X147915771Y-75479484D02*
X148153866Y-75479484D01*
X148153866Y-75479484D02*
X148344342Y-75527103D01*
X148344342Y-75527103D02*
X148439580Y-75574722D01*
X148439580Y-75574722D02*
X148487200Y-75622341D01*
X148487200Y-75622341D02*
X148534819Y-75717579D01*
X148534819Y-75717579D02*
X148534819Y-75812817D01*
X148534819Y-75812817D02*
X148487200Y-75908055D01*
X148487200Y-75908055D02*
X148439580Y-75955674D01*
X148439580Y-75955674D02*
X148344342Y-76003293D01*
X148344342Y-76003293D02*
X148153866Y-76050912D01*
X148153866Y-76050912D02*
X147915771Y-76050912D01*
X147915771Y-76050912D02*
X147725295Y-76003293D01*
X147725295Y-76003293D02*
X147630057Y-75955674D01*
X147630057Y-75955674D02*
X147582438Y-75908055D01*
X147582438Y-75908055D02*
X147534819Y-75812817D01*
X159183333Y-81546208D02*
X158850000Y-81070017D01*
X158611905Y-81546208D02*
X158611905Y-80546208D01*
X158611905Y-80546208D02*
X158992857Y-80546208D01*
X158992857Y-80546208D02*
X159088095Y-80593827D01*
X159088095Y-80593827D02*
X159135714Y-80641446D01*
X159135714Y-80641446D02*
X159183333Y-80736684D01*
X159183333Y-80736684D02*
X159183333Y-80879541D01*
X159183333Y-80879541D02*
X159135714Y-80974779D01*
X159135714Y-80974779D02*
X159088095Y-81022398D01*
X159088095Y-81022398D02*
X158992857Y-81070017D01*
X158992857Y-81070017D02*
X158611905Y-81070017D01*
X159659524Y-81546208D02*
X159850000Y-81546208D01*
X159850000Y-81546208D02*
X159945238Y-81498589D01*
X159945238Y-81498589D02*
X159992857Y-81450969D01*
X159992857Y-81450969D02*
X160088095Y-81308112D01*
X160088095Y-81308112D02*
X160135714Y-81117636D01*
X160135714Y-81117636D02*
X160135714Y-80736684D01*
X160135714Y-80736684D02*
X160088095Y-80641446D01*
X160088095Y-80641446D02*
X160040476Y-80593827D01*
X160040476Y-80593827D02*
X159945238Y-80546208D01*
X159945238Y-80546208D02*
X159754762Y-80546208D01*
X159754762Y-80546208D02*
X159659524Y-80593827D01*
X159659524Y-80593827D02*
X159611905Y-80641446D01*
X159611905Y-80641446D02*
X159564286Y-80736684D01*
X159564286Y-80736684D02*
X159564286Y-80974779D01*
X159564286Y-80974779D02*
X159611905Y-81070017D01*
X159611905Y-81070017D02*
X159659524Y-81117636D01*
X159659524Y-81117636D02*
X159754762Y-81165255D01*
X159754762Y-81165255D02*
X159945238Y-81165255D01*
X159945238Y-81165255D02*
X160040476Y-81117636D01*
X160040476Y-81117636D02*
X160088095Y-81070017D01*
X160088095Y-81070017D02*
X160135714Y-80974779D01*
X151108333Y-80054819D02*
X150775000Y-79578628D01*
X150536905Y-80054819D02*
X150536905Y-79054819D01*
X150536905Y-79054819D02*
X150917857Y-79054819D01*
X150917857Y-79054819D02*
X151013095Y-79102438D01*
X151013095Y-79102438D02*
X151060714Y-79150057D01*
X151060714Y-79150057D02*
X151108333Y-79245295D01*
X151108333Y-79245295D02*
X151108333Y-79388152D01*
X151108333Y-79388152D02*
X151060714Y-79483390D01*
X151060714Y-79483390D02*
X151013095Y-79531009D01*
X151013095Y-79531009D02*
X150917857Y-79578628D01*
X150917857Y-79578628D02*
X150536905Y-79578628D01*
X151679762Y-79483390D02*
X151584524Y-79435771D01*
X151584524Y-79435771D02*
X151536905Y-79388152D01*
X151536905Y-79388152D02*
X151489286Y-79292914D01*
X151489286Y-79292914D02*
X151489286Y-79245295D01*
X151489286Y-79245295D02*
X151536905Y-79150057D01*
X151536905Y-79150057D02*
X151584524Y-79102438D01*
X151584524Y-79102438D02*
X151679762Y-79054819D01*
X151679762Y-79054819D02*
X151870238Y-79054819D01*
X151870238Y-79054819D02*
X151965476Y-79102438D01*
X151965476Y-79102438D02*
X152013095Y-79150057D01*
X152013095Y-79150057D02*
X152060714Y-79245295D01*
X152060714Y-79245295D02*
X152060714Y-79292914D01*
X152060714Y-79292914D02*
X152013095Y-79388152D01*
X152013095Y-79388152D02*
X151965476Y-79435771D01*
X151965476Y-79435771D02*
X151870238Y-79483390D01*
X151870238Y-79483390D02*
X151679762Y-79483390D01*
X151679762Y-79483390D02*
X151584524Y-79531009D01*
X151584524Y-79531009D02*
X151536905Y-79578628D01*
X151536905Y-79578628D02*
X151489286Y-79673866D01*
X151489286Y-79673866D02*
X151489286Y-79864342D01*
X151489286Y-79864342D02*
X151536905Y-79959580D01*
X151536905Y-79959580D02*
X151584524Y-80007200D01*
X151584524Y-80007200D02*
X151679762Y-80054819D01*
X151679762Y-80054819D02*
X151870238Y-80054819D01*
X151870238Y-80054819D02*
X151965476Y-80007200D01*
X151965476Y-80007200D02*
X152013095Y-79959580D01*
X152013095Y-79959580D02*
X152060714Y-79864342D01*
X152060714Y-79864342D02*
X152060714Y-79673866D01*
X152060714Y-79673866D02*
X152013095Y-79578628D01*
X152013095Y-79578628D02*
X151965476Y-79531009D01*
X151965476Y-79531009D02*
X151870238Y-79483390D01*
X151020833Y-74666208D02*
X150687500Y-74190017D01*
X150449405Y-74666208D02*
X150449405Y-73666208D01*
X150449405Y-73666208D02*
X150830357Y-73666208D01*
X150830357Y-73666208D02*
X150925595Y-73713827D01*
X150925595Y-73713827D02*
X150973214Y-73761446D01*
X150973214Y-73761446D02*
X151020833Y-73856684D01*
X151020833Y-73856684D02*
X151020833Y-73999541D01*
X151020833Y-73999541D02*
X150973214Y-74094779D01*
X150973214Y-74094779D02*
X150925595Y-74142398D01*
X150925595Y-74142398D02*
X150830357Y-74190017D01*
X150830357Y-74190017D02*
X150449405Y-74190017D01*
X151354167Y-73666208D02*
X152020833Y-73666208D01*
X152020833Y-73666208D02*
X151592262Y-74666208D01*
X179095833Y-66446208D02*
X178762500Y-65970017D01*
X178524405Y-66446208D02*
X178524405Y-65446208D01*
X178524405Y-65446208D02*
X178905357Y-65446208D01*
X178905357Y-65446208D02*
X179000595Y-65493827D01*
X179000595Y-65493827D02*
X179048214Y-65541446D01*
X179048214Y-65541446D02*
X179095833Y-65636684D01*
X179095833Y-65636684D02*
X179095833Y-65779541D01*
X179095833Y-65779541D02*
X179048214Y-65874779D01*
X179048214Y-65874779D02*
X179000595Y-65922398D01*
X179000595Y-65922398D02*
X178905357Y-65970017D01*
X178905357Y-65970017D02*
X178524405Y-65970017D01*
X179952976Y-65446208D02*
X179762500Y-65446208D01*
X179762500Y-65446208D02*
X179667262Y-65493827D01*
X179667262Y-65493827D02*
X179619643Y-65541446D01*
X179619643Y-65541446D02*
X179524405Y-65684303D01*
X179524405Y-65684303D02*
X179476786Y-65874779D01*
X179476786Y-65874779D02*
X179476786Y-66255731D01*
X179476786Y-66255731D02*
X179524405Y-66350969D01*
X179524405Y-66350969D02*
X179572024Y-66398589D01*
X179572024Y-66398589D02*
X179667262Y-66446208D01*
X179667262Y-66446208D02*
X179857738Y-66446208D01*
X179857738Y-66446208D02*
X179952976Y-66398589D01*
X179952976Y-66398589D02*
X180000595Y-66350969D01*
X180000595Y-66350969D02*
X180048214Y-66255731D01*
X180048214Y-66255731D02*
X180048214Y-66017636D01*
X180048214Y-66017636D02*
X180000595Y-65922398D01*
X180000595Y-65922398D02*
X179952976Y-65874779D01*
X179952976Y-65874779D02*
X179857738Y-65827160D01*
X179857738Y-65827160D02*
X179667262Y-65827160D01*
X179667262Y-65827160D02*
X179572024Y-65874779D01*
X179572024Y-65874779D02*
X179524405Y-65922398D01*
X179524405Y-65922398D02*
X179476786Y-66017636D01*
X179108333Y-72779819D02*
X178775000Y-72303628D01*
X178536905Y-72779819D02*
X178536905Y-71779819D01*
X178536905Y-71779819D02*
X178917857Y-71779819D01*
X178917857Y-71779819D02*
X179013095Y-71827438D01*
X179013095Y-71827438D02*
X179060714Y-71875057D01*
X179060714Y-71875057D02*
X179108333Y-71970295D01*
X179108333Y-71970295D02*
X179108333Y-72113152D01*
X179108333Y-72113152D02*
X179060714Y-72208390D01*
X179060714Y-72208390D02*
X179013095Y-72256009D01*
X179013095Y-72256009D02*
X178917857Y-72303628D01*
X178917857Y-72303628D02*
X178536905Y-72303628D01*
X180013095Y-71779819D02*
X179536905Y-71779819D01*
X179536905Y-71779819D02*
X179489286Y-72256009D01*
X179489286Y-72256009D02*
X179536905Y-72208390D01*
X179536905Y-72208390D02*
X179632143Y-72160771D01*
X179632143Y-72160771D02*
X179870238Y-72160771D01*
X179870238Y-72160771D02*
X179965476Y-72208390D01*
X179965476Y-72208390D02*
X180013095Y-72256009D01*
X180013095Y-72256009D02*
X180060714Y-72351247D01*
X180060714Y-72351247D02*
X180060714Y-72589342D01*
X180060714Y-72589342D02*
X180013095Y-72684580D01*
X180013095Y-72684580D02*
X179965476Y-72732200D01*
X179965476Y-72732200D02*
X179870238Y-72779819D01*
X179870238Y-72779819D02*
X179632143Y-72779819D01*
X179632143Y-72779819D02*
X179536905Y-72732200D01*
X179536905Y-72732200D02*
X179489286Y-72684580D01*
X121079819Y-60041666D02*
X120603628Y-60374999D01*
X121079819Y-60613094D02*
X120079819Y-60613094D01*
X120079819Y-60613094D02*
X120079819Y-60232142D01*
X120079819Y-60232142D02*
X120127438Y-60136904D01*
X120127438Y-60136904D02*
X120175057Y-60089285D01*
X120175057Y-60089285D02*
X120270295Y-60041666D01*
X120270295Y-60041666D02*
X120413152Y-60041666D01*
X120413152Y-60041666D02*
X120508390Y-60089285D01*
X120508390Y-60089285D02*
X120556009Y-60136904D01*
X120556009Y-60136904D02*
X120603628Y-60232142D01*
X120603628Y-60232142D02*
X120603628Y-60613094D01*
X120413152Y-59184523D02*
X121079819Y-59184523D01*
X120032200Y-59422618D02*
X120746485Y-59660713D01*
X120746485Y-59660713D02*
X120746485Y-59041666D01*
X118633333Y-75494819D02*
X118300000Y-75018628D01*
X118061905Y-75494819D02*
X118061905Y-74494819D01*
X118061905Y-74494819D02*
X118442857Y-74494819D01*
X118442857Y-74494819D02*
X118538095Y-74542438D01*
X118538095Y-74542438D02*
X118585714Y-74590057D01*
X118585714Y-74590057D02*
X118633333Y-74685295D01*
X118633333Y-74685295D02*
X118633333Y-74828152D01*
X118633333Y-74828152D02*
X118585714Y-74923390D01*
X118585714Y-74923390D02*
X118538095Y-74971009D01*
X118538095Y-74971009D02*
X118442857Y-75018628D01*
X118442857Y-75018628D02*
X118061905Y-75018628D01*
X118966667Y-74494819D02*
X119585714Y-74494819D01*
X119585714Y-74494819D02*
X119252381Y-74875771D01*
X119252381Y-74875771D02*
X119395238Y-74875771D01*
X119395238Y-74875771D02*
X119490476Y-74923390D01*
X119490476Y-74923390D02*
X119538095Y-74971009D01*
X119538095Y-74971009D02*
X119585714Y-75066247D01*
X119585714Y-75066247D02*
X119585714Y-75304342D01*
X119585714Y-75304342D02*
X119538095Y-75399580D01*
X119538095Y-75399580D02*
X119490476Y-75447200D01*
X119490476Y-75447200D02*
X119395238Y-75494819D01*
X119395238Y-75494819D02*
X119109524Y-75494819D01*
X119109524Y-75494819D02*
X119014286Y-75447200D01*
X119014286Y-75447200D02*
X118966667Y-75399580D01*
X124154819Y-93066666D02*
X123678628Y-93399999D01*
X124154819Y-93638094D02*
X123154819Y-93638094D01*
X123154819Y-93638094D02*
X123154819Y-93257142D01*
X123154819Y-93257142D02*
X123202438Y-93161904D01*
X123202438Y-93161904D02*
X123250057Y-93114285D01*
X123250057Y-93114285D02*
X123345295Y-93066666D01*
X123345295Y-93066666D02*
X123488152Y-93066666D01*
X123488152Y-93066666D02*
X123583390Y-93114285D01*
X123583390Y-93114285D02*
X123631009Y-93161904D01*
X123631009Y-93161904D02*
X123678628Y-93257142D01*
X123678628Y-93257142D02*
X123678628Y-93638094D01*
X123250057Y-92685713D02*
X123202438Y-92638094D01*
X123202438Y-92638094D02*
X123154819Y-92542856D01*
X123154819Y-92542856D02*
X123154819Y-92304761D01*
X123154819Y-92304761D02*
X123202438Y-92209523D01*
X123202438Y-92209523D02*
X123250057Y-92161904D01*
X123250057Y-92161904D02*
X123345295Y-92114285D01*
X123345295Y-92114285D02*
X123440533Y-92114285D01*
X123440533Y-92114285D02*
X123583390Y-92161904D01*
X123583390Y-92161904D02*
X124154819Y-92733332D01*
X124154819Y-92733332D02*
X124154819Y-92114285D01*
X120754819Y-93029166D02*
X120278628Y-93362499D01*
X120754819Y-93600594D02*
X119754819Y-93600594D01*
X119754819Y-93600594D02*
X119754819Y-93219642D01*
X119754819Y-93219642D02*
X119802438Y-93124404D01*
X119802438Y-93124404D02*
X119850057Y-93076785D01*
X119850057Y-93076785D02*
X119945295Y-93029166D01*
X119945295Y-93029166D02*
X120088152Y-93029166D01*
X120088152Y-93029166D02*
X120183390Y-93076785D01*
X120183390Y-93076785D02*
X120231009Y-93124404D01*
X120231009Y-93124404D02*
X120278628Y-93219642D01*
X120278628Y-93219642D02*
X120278628Y-93600594D01*
X120754819Y-92076785D02*
X120754819Y-92648213D01*
X120754819Y-92362499D02*
X119754819Y-92362499D01*
X119754819Y-92362499D02*
X119897676Y-92457737D01*
X119897676Y-92457737D02*
X119992914Y-92552975D01*
X119992914Y-92552975D02*
X120040533Y-92648213D01*
X160307142Y-68459580D02*
X160259523Y-68507200D01*
X160259523Y-68507200D02*
X160116666Y-68554819D01*
X160116666Y-68554819D02*
X160021428Y-68554819D01*
X160021428Y-68554819D02*
X159878571Y-68507200D01*
X159878571Y-68507200D02*
X159783333Y-68411961D01*
X159783333Y-68411961D02*
X159735714Y-68316723D01*
X159735714Y-68316723D02*
X159688095Y-68126247D01*
X159688095Y-68126247D02*
X159688095Y-67983390D01*
X159688095Y-67983390D02*
X159735714Y-67792914D01*
X159735714Y-67792914D02*
X159783333Y-67697676D01*
X159783333Y-67697676D02*
X159878571Y-67602438D01*
X159878571Y-67602438D02*
X160021428Y-67554819D01*
X160021428Y-67554819D02*
X160116666Y-67554819D01*
X160116666Y-67554819D02*
X160259523Y-67602438D01*
X160259523Y-67602438D02*
X160307142Y-67650057D01*
X160688095Y-67650057D02*
X160735714Y-67602438D01*
X160735714Y-67602438D02*
X160830952Y-67554819D01*
X160830952Y-67554819D02*
X161069047Y-67554819D01*
X161069047Y-67554819D02*
X161164285Y-67602438D01*
X161164285Y-67602438D02*
X161211904Y-67650057D01*
X161211904Y-67650057D02*
X161259523Y-67745295D01*
X161259523Y-67745295D02*
X161259523Y-67840533D01*
X161259523Y-67840533D02*
X161211904Y-67983390D01*
X161211904Y-67983390D02*
X160640476Y-68554819D01*
X160640476Y-68554819D02*
X161259523Y-68554819D01*
X162211904Y-68554819D02*
X161640476Y-68554819D01*
X161926190Y-68554819D02*
X161926190Y-67554819D01*
X161926190Y-67554819D02*
X161830952Y-67697676D01*
X161830952Y-67697676D02*
X161735714Y-67792914D01*
X161735714Y-67792914D02*
X161640476Y-67840533D01*
X159857142Y-65959580D02*
X159809523Y-66007200D01*
X159809523Y-66007200D02*
X159666666Y-66054819D01*
X159666666Y-66054819D02*
X159571428Y-66054819D01*
X159571428Y-66054819D02*
X159428571Y-66007200D01*
X159428571Y-66007200D02*
X159333333Y-65911961D01*
X159333333Y-65911961D02*
X159285714Y-65816723D01*
X159285714Y-65816723D02*
X159238095Y-65626247D01*
X159238095Y-65626247D02*
X159238095Y-65483390D01*
X159238095Y-65483390D02*
X159285714Y-65292914D01*
X159285714Y-65292914D02*
X159333333Y-65197676D01*
X159333333Y-65197676D02*
X159428571Y-65102438D01*
X159428571Y-65102438D02*
X159571428Y-65054819D01*
X159571428Y-65054819D02*
X159666666Y-65054819D01*
X159666666Y-65054819D02*
X159809523Y-65102438D01*
X159809523Y-65102438D02*
X159857142Y-65150057D01*
X160238095Y-65150057D02*
X160285714Y-65102438D01*
X160285714Y-65102438D02*
X160380952Y-65054819D01*
X160380952Y-65054819D02*
X160619047Y-65054819D01*
X160619047Y-65054819D02*
X160714285Y-65102438D01*
X160714285Y-65102438D02*
X160761904Y-65150057D01*
X160761904Y-65150057D02*
X160809523Y-65245295D01*
X160809523Y-65245295D02*
X160809523Y-65340533D01*
X160809523Y-65340533D02*
X160761904Y-65483390D01*
X160761904Y-65483390D02*
X160190476Y-66054819D01*
X160190476Y-66054819D02*
X160809523Y-66054819D01*
X161428571Y-65054819D02*
X161523809Y-65054819D01*
X161523809Y-65054819D02*
X161619047Y-65102438D01*
X161619047Y-65102438D02*
X161666666Y-65150057D01*
X161666666Y-65150057D02*
X161714285Y-65245295D01*
X161714285Y-65245295D02*
X161761904Y-65435771D01*
X161761904Y-65435771D02*
X161761904Y-65673866D01*
X161761904Y-65673866D02*
X161714285Y-65864342D01*
X161714285Y-65864342D02*
X161666666Y-65959580D01*
X161666666Y-65959580D02*
X161619047Y-66007200D01*
X161619047Y-66007200D02*
X161523809Y-66054819D01*
X161523809Y-66054819D02*
X161428571Y-66054819D01*
X161428571Y-66054819D02*
X161333333Y-66007200D01*
X161333333Y-66007200D02*
X161285714Y-65959580D01*
X161285714Y-65959580D02*
X161238095Y-65864342D01*
X161238095Y-65864342D02*
X161190476Y-65673866D01*
X161190476Y-65673866D02*
X161190476Y-65435771D01*
X161190476Y-65435771D02*
X161238095Y-65245295D01*
X161238095Y-65245295D02*
X161285714Y-65150057D01*
X161285714Y-65150057D02*
X161333333Y-65102438D01*
X161333333Y-65102438D02*
X161428571Y-65054819D01*
X167839580Y-71659246D02*
X167887200Y-71706865D01*
X167887200Y-71706865D02*
X167934819Y-71849722D01*
X167934819Y-71849722D02*
X167934819Y-71944960D01*
X167934819Y-71944960D02*
X167887200Y-72087817D01*
X167887200Y-72087817D02*
X167791961Y-72183055D01*
X167791961Y-72183055D02*
X167696723Y-72230674D01*
X167696723Y-72230674D02*
X167506247Y-72278293D01*
X167506247Y-72278293D02*
X167363390Y-72278293D01*
X167363390Y-72278293D02*
X167172914Y-72230674D01*
X167172914Y-72230674D02*
X167077676Y-72183055D01*
X167077676Y-72183055D02*
X166982438Y-72087817D01*
X166982438Y-72087817D02*
X166934819Y-71944960D01*
X166934819Y-71944960D02*
X166934819Y-71849722D01*
X166934819Y-71849722D02*
X166982438Y-71706865D01*
X166982438Y-71706865D02*
X167030057Y-71659246D01*
X167934819Y-70706865D02*
X167934819Y-71278293D01*
X167934819Y-70992579D02*
X166934819Y-70992579D01*
X166934819Y-70992579D02*
X167077676Y-71087817D01*
X167077676Y-71087817D02*
X167172914Y-71183055D01*
X167172914Y-71183055D02*
X167220533Y-71278293D01*
X167934819Y-70230674D02*
X167934819Y-70040198D01*
X167934819Y-70040198D02*
X167887200Y-69944960D01*
X167887200Y-69944960D02*
X167839580Y-69897341D01*
X167839580Y-69897341D02*
X167696723Y-69802103D01*
X167696723Y-69802103D02*
X167506247Y-69754484D01*
X167506247Y-69754484D02*
X167125295Y-69754484D01*
X167125295Y-69754484D02*
X167030057Y-69802103D01*
X167030057Y-69802103D02*
X166982438Y-69849722D01*
X166982438Y-69849722D02*
X166934819Y-69944960D01*
X166934819Y-69944960D02*
X166934819Y-70135436D01*
X166934819Y-70135436D02*
X166982438Y-70230674D01*
X166982438Y-70230674D02*
X167030057Y-70278293D01*
X167030057Y-70278293D02*
X167125295Y-70325912D01*
X167125295Y-70325912D02*
X167363390Y-70325912D01*
X167363390Y-70325912D02*
X167458628Y-70278293D01*
X167458628Y-70278293D02*
X167506247Y-70230674D01*
X167506247Y-70230674D02*
X167553866Y-70135436D01*
X167553866Y-70135436D02*
X167553866Y-69944960D01*
X167553866Y-69944960D02*
X167506247Y-69849722D01*
X167506247Y-69849722D02*
X167458628Y-69802103D01*
X167458628Y-69802103D02*
X167363390Y-69754484D01*
X161209580Y-71642857D02*
X161257200Y-71690476D01*
X161257200Y-71690476D02*
X161304819Y-71833333D01*
X161304819Y-71833333D02*
X161304819Y-71928571D01*
X161304819Y-71928571D02*
X161257200Y-72071428D01*
X161257200Y-72071428D02*
X161161961Y-72166666D01*
X161161961Y-72166666D02*
X161066723Y-72214285D01*
X161066723Y-72214285D02*
X160876247Y-72261904D01*
X160876247Y-72261904D02*
X160733390Y-72261904D01*
X160733390Y-72261904D02*
X160542914Y-72214285D01*
X160542914Y-72214285D02*
X160447676Y-72166666D01*
X160447676Y-72166666D02*
X160352438Y-72071428D01*
X160352438Y-72071428D02*
X160304819Y-71928571D01*
X160304819Y-71928571D02*
X160304819Y-71833333D01*
X160304819Y-71833333D02*
X160352438Y-71690476D01*
X160352438Y-71690476D02*
X160400057Y-71642857D01*
X161304819Y-70690476D02*
X161304819Y-71261904D01*
X161304819Y-70976190D02*
X160304819Y-70976190D01*
X160304819Y-70976190D02*
X160447676Y-71071428D01*
X160447676Y-71071428D02*
X160542914Y-71166666D01*
X160542914Y-71166666D02*
X160590533Y-71261904D01*
X160733390Y-70119047D02*
X160685771Y-70214285D01*
X160685771Y-70214285D02*
X160638152Y-70261904D01*
X160638152Y-70261904D02*
X160542914Y-70309523D01*
X160542914Y-70309523D02*
X160495295Y-70309523D01*
X160495295Y-70309523D02*
X160400057Y-70261904D01*
X160400057Y-70261904D02*
X160352438Y-70214285D01*
X160352438Y-70214285D02*
X160304819Y-70119047D01*
X160304819Y-70119047D02*
X160304819Y-69928571D01*
X160304819Y-69928571D02*
X160352438Y-69833333D01*
X160352438Y-69833333D02*
X160400057Y-69785714D01*
X160400057Y-69785714D02*
X160495295Y-69738095D01*
X160495295Y-69738095D02*
X160542914Y-69738095D01*
X160542914Y-69738095D02*
X160638152Y-69785714D01*
X160638152Y-69785714D02*
X160685771Y-69833333D01*
X160685771Y-69833333D02*
X160733390Y-69928571D01*
X160733390Y-69928571D02*
X160733390Y-70119047D01*
X160733390Y-70119047D02*
X160781009Y-70214285D01*
X160781009Y-70214285D02*
X160828628Y-70261904D01*
X160828628Y-70261904D02*
X160923866Y-70309523D01*
X160923866Y-70309523D02*
X161114342Y-70309523D01*
X161114342Y-70309523D02*
X161209580Y-70261904D01*
X161209580Y-70261904D02*
X161257200Y-70214285D01*
X161257200Y-70214285D02*
X161304819Y-70119047D01*
X161304819Y-70119047D02*
X161304819Y-69928571D01*
X161304819Y-69928571D02*
X161257200Y-69833333D01*
X161257200Y-69833333D02*
X161209580Y-69785714D01*
X161209580Y-69785714D02*
X161114342Y-69738095D01*
X161114342Y-69738095D02*
X160923866Y-69738095D01*
X160923866Y-69738095D02*
X160828628Y-69785714D01*
X160828628Y-69785714D02*
X160781009Y-69833333D01*
X160781009Y-69833333D02*
X160733390Y-69928571D01*
X170714580Y-59734246D02*
X170762200Y-59781865D01*
X170762200Y-59781865D02*
X170809819Y-59924722D01*
X170809819Y-59924722D02*
X170809819Y-60019960D01*
X170809819Y-60019960D02*
X170762200Y-60162817D01*
X170762200Y-60162817D02*
X170666961Y-60258055D01*
X170666961Y-60258055D02*
X170571723Y-60305674D01*
X170571723Y-60305674D02*
X170381247Y-60353293D01*
X170381247Y-60353293D02*
X170238390Y-60353293D01*
X170238390Y-60353293D02*
X170047914Y-60305674D01*
X170047914Y-60305674D02*
X169952676Y-60258055D01*
X169952676Y-60258055D02*
X169857438Y-60162817D01*
X169857438Y-60162817D02*
X169809819Y-60019960D01*
X169809819Y-60019960D02*
X169809819Y-59924722D01*
X169809819Y-59924722D02*
X169857438Y-59781865D01*
X169857438Y-59781865D02*
X169905057Y-59734246D01*
X170809819Y-58781865D02*
X170809819Y-59353293D01*
X170809819Y-59067579D02*
X169809819Y-59067579D01*
X169809819Y-59067579D02*
X169952676Y-59162817D01*
X169952676Y-59162817D02*
X170047914Y-59258055D01*
X170047914Y-59258055D02*
X170095533Y-59353293D01*
X169809819Y-58448531D02*
X169809819Y-57781865D01*
X169809819Y-57781865D02*
X170809819Y-58210436D01*
X180714580Y-59734246D02*
X180762200Y-59781865D01*
X180762200Y-59781865D02*
X180809819Y-59924722D01*
X180809819Y-59924722D02*
X180809819Y-60019960D01*
X180809819Y-60019960D02*
X180762200Y-60162817D01*
X180762200Y-60162817D02*
X180666961Y-60258055D01*
X180666961Y-60258055D02*
X180571723Y-60305674D01*
X180571723Y-60305674D02*
X180381247Y-60353293D01*
X180381247Y-60353293D02*
X180238390Y-60353293D01*
X180238390Y-60353293D02*
X180047914Y-60305674D01*
X180047914Y-60305674D02*
X179952676Y-60258055D01*
X179952676Y-60258055D02*
X179857438Y-60162817D01*
X179857438Y-60162817D02*
X179809819Y-60019960D01*
X179809819Y-60019960D02*
X179809819Y-59924722D01*
X179809819Y-59924722D02*
X179857438Y-59781865D01*
X179857438Y-59781865D02*
X179905057Y-59734246D01*
X180809819Y-58781865D02*
X180809819Y-59353293D01*
X180809819Y-59067579D02*
X179809819Y-59067579D01*
X179809819Y-59067579D02*
X179952676Y-59162817D01*
X179952676Y-59162817D02*
X180047914Y-59258055D01*
X180047914Y-59258055D02*
X180095533Y-59353293D01*
X179809819Y-57924722D02*
X179809819Y-58115198D01*
X179809819Y-58115198D02*
X179857438Y-58210436D01*
X179857438Y-58210436D02*
X179905057Y-58258055D01*
X179905057Y-58258055D02*
X180047914Y-58353293D01*
X180047914Y-58353293D02*
X180238390Y-58400912D01*
X180238390Y-58400912D02*
X180619342Y-58400912D01*
X180619342Y-58400912D02*
X180714580Y-58353293D01*
X180714580Y-58353293D02*
X180762200Y-58305674D01*
X180762200Y-58305674D02*
X180809819Y-58210436D01*
X180809819Y-58210436D02*
X180809819Y-58019960D01*
X180809819Y-58019960D02*
X180762200Y-57924722D01*
X180762200Y-57924722D02*
X180714580Y-57877103D01*
X180714580Y-57877103D02*
X180619342Y-57829484D01*
X180619342Y-57829484D02*
X180381247Y-57829484D01*
X180381247Y-57829484D02*
X180286009Y-57877103D01*
X180286009Y-57877103D02*
X180238390Y-57924722D01*
X180238390Y-57924722D02*
X180190771Y-58019960D01*
X180190771Y-58019960D02*
X180190771Y-58210436D01*
X180190771Y-58210436D02*
X180238390Y-58305674D01*
X180238390Y-58305674D02*
X180286009Y-58353293D01*
X180286009Y-58353293D02*
X180381247Y-58400912D01*
X154957142Y-80480969D02*
X154909523Y-80528589D01*
X154909523Y-80528589D02*
X154766666Y-80576208D01*
X154766666Y-80576208D02*
X154671428Y-80576208D01*
X154671428Y-80576208D02*
X154528571Y-80528589D01*
X154528571Y-80528589D02*
X154433333Y-80433350D01*
X154433333Y-80433350D02*
X154385714Y-80338112D01*
X154385714Y-80338112D02*
X154338095Y-80147636D01*
X154338095Y-80147636D02*
X154338095Y-80004779D01*
X154338095Y-80004779D02*
X154385714Y-79814303D01*
X154385714Y-79814303D02*
X154433333Y-79719065D01*
X154433333Y-79719065D02*
X154528571Y-79623827D01*
X154528571Y-79623827D02*
X154671428Y-79576208D01*
X154671428Y-79576208D02*
X154766666Y-79576208D01*
X154766666Y-79576208D02*
X154909523Y-79623827D01*
X154909523Y-79623827D02*
X154957142Y-79671446D01*
X155909523Y-80576208D02*
X155338095Y-80576208D01*
X155623809Y-80576208D02*
X155623809Y-79576208D01*
X155623809Y-79576208D02*
X155528571Y-79719065D01*
X155528571Y-79719065D02*
X155433333Y-79814303D01*
X155433333Y-79814303D02*
X155338095Y-79861922D01*
X156814285Y-79576208D02*
X156338095Y-79576208D01*
X156338095Y-79576208D02*
X156290476Y-80052398D01*
X156290476Y-80052398D02*
X156338095Y-80004779D01*
X156338095Y-80004779D02*
X156433333Y-79957160D01*
X156433333Y-79957160D02*
X156671428Y-79957160D01*
X156671428Y-79957160D02*
X156766666Y-80004779D01*
X156766666Y-80004779D02*
X156814285Y-80052398D01*
X156814285Y-80052398D02*
X156861904Y-80147636D01*
X156861904Y-80147636D02*
X156861904Y-80385731D01*
X156861904Y-80385731D02*
X156814285Y-80480969D01*
X156814285Y-80480969D02*
X156766666Y-80528589D01*
X156766666Y-80528589D02*
X156671428Y-80576208D01*
X156671428Y-80576208D02*
X156433333Y-80576208D01*
X156433333Y-80576208D02*
X156338095Y-80528589D01*
X156338095Y-80528589D02*
X156290476Y-80480969D01*
X160234580Y-74492857D02*
X160282200Y-74540476D01*
X160282200Y-74540476D02*
X160329819Y-74683333D01*
X160329819Y-74683333D02*
X160329819Y-74778571D01*
X160329819Y-74778571D02*
X160282200Y-74921428D01*
X160282200Y-74921428D02*
X160186961Y-75016666D01*
X160186961Y-75016666D02*
X160091723Y-75064285D01*
X160091723Y-75064285D02*
X159901247Y-75111904D01*
X159901247Y-75111904D02*
X159758390Y-75111904D01*
X159758390Y-75111904D02*
X159567914Y-75064285D01*
X159567914Y-75064285D02*
X159472676Y-75016666D01*
X159472676Y-75016666D02*
X159377438Y-74921428D01*
X159377438Y-74921428D02*
X159329819Y-74778571D01*
X159329819Y-74778571D02*
X159329819Y-74683333D01*
X159329819Y-74683333D02*
X159377438Y-74540476D01*
X159377438Y-74540476D02*
X159425057Y-74492857D01*
X160329819Y-73540476D02*
X160329819Y-74111904D01*
X160329819Y-73826190D02*
X159329819Y-73826190D01*
X159329819Y-73826190D02*
X159472676Y-73921428D01*
X159472676Y-73921428D02*
X159567914Y-74016666D01*
X159567914Y-74016666D02*
X159615533Y-74111904D01*
X159663152Y-72683333D02*
X160329819Y-72683333D01*
X159282200Y-72921428D02*
X159996485Y-73159523D01*
X159996485Y-73159523D02*
X159996485Y-72540476D01*
X154957142Y-74620969D02*
X154909523Y-74668589D01*
X154909523Y-74668589D02*
X154766666Y-74716208D01*
X154766666Y-74716208D02*
X154671428Y-74716208D01*
X154671428Y-74716208D02*
X154528571Y-74668589D01*
X154528571Y-74668589D02*
X154433333Y-74573350D01*
X154433333Y-74573350D02*
X154385714Y-74478112D01*
X154385714Y-74478112D02*
X154338095Y-74287636D01*
X154338095Y-74287636D02*
X154338095Y-74144779D01*
X154338095Y-74144779D02*
X154385714Y-73954303D01*
X154385714Y-73954303D02*
X154433333Y-73859065D01*
X154433333Y-73859065D02*
X154528571Y-73763827D01*
X154528571Y-73763827D02*
X154671428Y-73716208D01*
X154671428Y-73716208D02*
X154766666Y-73716208D01*
X154766666Y-73716208D02*
X154909523Y-73763827D01*
X154909523Y-73763827D02*
X154957142Y-73811446D01*
X155909523Y-74716208D02*
X155338095Y-74716208D01*
X155623809Y-74716208D02*
X155623809Y-73716208D01*
X155623809Y-73716208D02*
X155528571Y-73859065D01*
X155528571Y-73859065D02*
X155433333Y-73954303D01*
X155433333Y-73954303D02*
X155338095Y-74001922D01*
X156242857Y-73716208D02*
X156861904Y-73716208D01*
X156861904Y-73716208D02*
X156528571Y-74097160D01*
X156528571Y-74097160D02*
X156671428Y-74097160D01*
X156671428Y-74097160D02*
X156766666Y-74144779D01*
X156766666Y-74144779D02*
X156814285Y-74192398D01*
X156814285Y-74192398D02*
X156861904Y-74287636D01*
X156861904Y-74287636D02*
X156861904Y-74525731D01*
X156861904Y-74525731D02*
X156814285Y-74620969D01*
X156814285Y-74620969D02*
X156766666Y-74668589D01*
X156766666Y-74668589D02*
X156671428Y-74716208D01*
X156671428Y-74716208D02*
X156385714Y-74716208D01*
X156385714Y-74716208D02*
X156290476Y-74668589D01*
X156290476Y-74668589D02*
X156242857Y-74620969D01*
X174389580Y-83184246D02*
X174437200Y-83231865D01*
X174437200Y-83231865D02*
X174484819Y-83374722D01*
X174484819Y-83374722D02*
X174484819Y-83469960D01*
X174484819Y-83469960D02*
X174437200Y-83612817D01*
X174437200Y-83612817D02*
X174341961Y-83708055D01*
X174341961Y-83708055D02*
X174246723Y-83755674D01*
X174246723Y-83755674D02*
X174056247Y-83803293D01*
X174056247Y-83803293D02*
X173913390Y-83803293D01*
X173913390Y-83803293D02*
X173722914Y-83755674D01*
X173722914Y-83755674D02*
X173627676Y-83708055D01*
X173627676Y-83708055D02*
X173532438Y-83612817D01*
X173532438Y-83612817D02*
X173484819Y-83469960D01*
X173484819Y-83469960D02*
X173484819Y-83374722D01*
X173484819Y-83374722D02*
X173532438Y-83231865D01*
X173532438Y-83231865D02*
X173580057Y-83184246D01*
X174484819Y-82231865D02*
X174484819Y-82803293D01*
X174484819Y-82517579D02*
X173484819Y-82517579D01*
X173484819Y-82517579D02*
X173627676Y-82612817D01*
X173627676Y-82612817D02*
X173722914Y-82708055D01*
X173722914Y-82708055D02*
X173770533Y-82803293D01*
X173580057Y-81850912D02*
X173532438Y-81803293D01*
X173532438Y-81803293D02*
X173484819Y-81708055D01*
X173484819Y-81708055D02*
X173484819Y-81469960D01*
X173484819Y-81469960D02*
X173532438Y-81374722D01*
X173532438Y-81374722D02*
X173580057Y-81327103D01*
X173580057Y-81327103D02*
X173675295Y-81279484D01*
X173675295Y-81279484D02*
X173770533Y-81279484D01*
X173770533Y-81279484D02*
X173913390Y-81327103D01*
X173913390Y-81327103D02*
X174484819Y-81898531D01*
X174484819Y-81898531D02*
X174484819Y-81279484D01*
X169334580Y-83167857D02*
X169382200Y-83215476D01*
X169382200Y-83215476D02*
X169429819Y-83358333D01*
X169429819Y-83358333D02*
X169429819Y-83453571D01*
X169429819Y-83453571D02*
X169382200Y-83596428D01*
X169382200Y-83596428D02*
X169286961Y-83691666D01*
X169286961Y-83691666D02*
X169191723Y-83739285D01*
X169191723Y-83739285D02*
X169001247Y-83786904D01*
X169001247Y-83786904D02*
X168858390Y-83786904D01*
X168858390Y-83786904D02*
X168667914Y-83739285D01*
X168667914Y-83739285D02*
X168572676Y-83691666D01*
X168572676Y-83691666D02*
X168477438Y-83596428D01*
X168477438Y-83596428D02*
X168429819Y-83453571D01*
X168429819Y-83453571D02*
X168429819Y-83358333D01*
X168429819Y-83358333D02*
X168477438Y-83215476D01*
X168477438Y-83215476D02*
X168525057Y-83167857D01*
X169429819Y-82215476D02*
X169429819Y-82786904D01*
X169429819Y-82501190D02*
X168429819Y-82501190D01*
X168429819Y-82501190D02*
X168572676Y-82596428D01*
X168572676Y-82596428D02*
X168667914Y-82691666D01*
X168667914Y-82691666D02*
X168715533Y-82786904D01*
X169429819Y-81263095D02*
X169429819Y-81834523D01*
X169429819Y-81548809D02*
X168429819Y-81548809D01*
X168429819Y-81548809D02*
X168572676Y-81644047D01*
X168572676Y-81644047D02*
X168667914Y-81739285D01*
X168667914Y-81739285D02*
X168715533Y-81834523D01*
X135334580Y-71967857D02*
X135382200Y-72015476D01*
X135382200Y-72015476D02*
X135429819Y-72158333D01*
X135429819Y-72158333D02*
X135429819Y-72253571D01*
X135429819Y-72253571D02*
X135382200Y-72396428D01*
X135382200Y-72396428D02*
X135286961Y-72491666D01*
X135286961Y-72491666D02*
X135191723Y-72539285D01*
X135191723Y-72539285D02*
X135001247Y-72586904D01*
X135001247Y-72586904D02*
X134858390Y-72586904D01*
X134858390Y-72586904D02*
X134667914Y-72539285D01*
X134667914Y-72539285D02*
X134572676Y-72491666D01*
X134572676Y-72491666D02*
X134477438Y-72396428D01*
X134477438Y-72396428D02*
X134429819Y-72253571D01*
X134429819Y-72253571D02*
X134429819Y-72158333D01*
X134429819Y-72158333D02*
X134477438Y-72015476D01*
X134477438Y-72015476D02*
X134525057Y-71967857D01*
X135429819Y-71015476D02*
X135429819Y-71586904D01*
X135429819Y-71301190D02*
X134429819Y-71301190D01*
X134429819Y-71301190D02*
X134572676Y-71396428D01*
X134572676Y-71396428D02*
X134667914Y-71491666D01*
X134667914Y-71491666D02*
X134715533Y-71586904D01*
X134429819Y-70396428D02*
X134429819Y-70301190D01*
X134429819Y-70301190D02*
X134477438Y-70205952D01*
X134477438Y-70205952D02*
X134525057Y-70158333D01*
X134525057Y-70158333D02*
X134620295Y-70110714D01*
X134620295Y-70110714D02*
X134810771Y-70063095D01*
X134810771Y-70063095D02*
X135048866Y-70063095D01*
X135048866Y-70063095D02*
X135239342Y-70110714D01*
X135239342Y-70110714D02*
X135334580Y-70158333D01*
X135334580Y-70158333D02*
X135382200Y-70205952D01*
X135382200Y-70205952D02*
X135429819Y-70301190D01*
X135429819Y-70301190D02*
X135429819Y-70396428D01*
X135429819Y-70396428D02*
X135382200Y-70491666D01*
X135382200Y-70491666D02*
X135334580Y-70539285D01*
X135334580Y-70539285D02*
X135239342Y-70586904D01*
X135239342Y-70586904D02*
X135048866Y-70634523D01*
X135048866Y-70634523D02*
X134810771Y-70634523D01*
X134810771Y-70634523D02*
X134620295Y-70586904D01*
X134620295Y-70586904D02*
X134525057Y-70539285D01*
X134525057Y-70539285D02*
X134477438Y-70491666D01*
X134477438Y-70491666D02*
X134429819Y-70396428D01*
X120829580Y-66456666D02*
X120877200Y-66504285D01*
X120877200Y-66504285D02*
X120924819Y-66647142D01*
X120924819Y-66647142D02*
X120924819Y-66742380D01*
X120924819Y-66742380D02*
X120877200Y-66885237D01*
X120877200Y-66885237D02*
X120781961Y-66980475D01*
X120781961Y-66980475D02*
X120686723Y-67028094D01*
X120686723Y-67028094D02*
X120496247Y-67075713D01*
X120496247Y-67075713D02*
X120353390Y-67075713D01*
X120353390Y-67075713D02*
X120162914Y-67028094D01*
X120162914Y-67028094D02*
X120067676Y-66980475D01*
X120067676Y-66980475D02*
X119972438Y-66885237D01*
X119972438Y-66885237D02*
X119924819Y-66742380D01*
X119924819Y-66742380D02*
X119924819Y-66647142D01*
X119924819Y-66647142D02*
X119972438Y-66504285D01*
X119972438Y-66504285D02*
X120020057Y-66456666D01*
X120924819Y-65980475D02*
X120924819Y-65789999D01*
X120924819Y-65789999D02*
X120877200Y-65694761D01*
X120877200Y-65694761D02*
X120829580Y-65647142D01*
X120829580Y-65647142D02*
X120686723Y-65551904D01*
X120686723Y-65551904D02*
X120496247Y-65504285D01*
X120496247Y-65504285D02*
X120115295Y-65504285D01*
X120115295Y-65504285D02*
X120020057Y-65551904D01*
X120020057Y-65551904D02*
X119972438Y-65599523D01*
X119972438Y-65599523D02*
X119924819Y-65694761D01*
X119924819Y-65694761D02*
X119924819Y-65885237D01*
X119924819Y-65885237D02*
X119972438Y-65980475D01*
X119972438Y-65980475D02*
X120020057Y-66028094D01*
X120020057Y-66028094D02*
X120115295Y-66075713D01*
X120115295Y-66075713D02*
X120353390Y-66075713D01*
X120353390Y-66075713D02*
X120448628Y-66028094D01*
X120448628Y-66028094D02*
X120496247Y-65980475D01*
X120496247Y-65980475D02*
X120543866Y-65885237D01*
X120543866Y-65885237D02*
X120543866Y-65694761D01*
X120543866Y-65694761D02*
X120496247Y-65599523D01*
X120496247Y-65599523D02*
X120448628Y-65551904D01*
X120448628Y-65551904D02*
X120353390Y-65504285D01*
X116534580Y-62906666D02*
X116582200Y-62954285D01*
X116582200Y-62954285D02*
X116629819Y-63097142D01*
X116629819Y-63097142D02*
X116629819Y-63192380D01*
X116629819Y-63192380D02*
X116582200Y-63335237D01*
X116582200Y-63335237D02*
X116486961Y-63430475D01*
X116486961Y-63430475D02*
X116391723Y-63478094D01*
X116391723Y-63478094D02*
X116201247Y-63525713D01*
X116201247Y-63525713D02*
X116058390Y-63525713D01*
X116058390Y-63525713D02*
X115867914Y-63478094D01*
X115867914Y-63478094D02*
X115772676Y-63430475D01*
X115772676Y-63430475D02*
X115677438Y-63335237D01*
X115677438Y-63335237D02*
X115629819Y-63192380D01*
X115629819Y-63192380D02*
X115629819Y-63097142D01*
X115629819Y-63097142D02*
X115677438Y-62954285D01*
X115677438Y-62954285D02*
X115725057Y-62906666D01*
X116058390Y-62335237D02*
X116010771Y-62430475D01*
X116010771Y-62430475D02*
X115963152Y-62478094D01*
X115963152Y-62478094D02*
X115867914Y-62525713D01*
X115867914Y-62525713D02*
X115820295Y-62525713D01*
X115820295Y-62525713D02*
X115725057Y-62478094D01*
X115725057Y-62478094D02*
X115677438Y-62430475D01*
X115677438Y-62430475D02*
X115629819Y-62335237D01*
X115629819Y-62335237D02*
X115629819Y-62144761D01*
X115629819Y-62144761D02*
X115677438Y-62049523D01*
X115677438Y-62049523D02*
X115725057Y-62001904D01*
X115725057Y-62001904D02*
X115820295Y-61954285D01*
X115820295Y-61954285D02*
X115867914Y-61954285D01*
X115867914Y-61954285D02*
X115963152Y-62001904D01*
X115963152Y-62001904D02*
X116010771Y-62049523D01*
X116010771Y-62049523D02*
X116058390Y-62144761D01*
X116058390Y-62144761D02*
X116058390Y-62335237D01*
X116058390Y-62335237D02*
X116106009Y-62430475D01*
X116106009Y-62430475D02*
X116153628Y-62478094D01*
X116153628Y-62478094D02*
X116248866Y-62525713D01*
X116248866Y-62525713D02*
X116439342Y-62525713D01*
X116439342Y-62525713D02*
X116534580Y-62478094D01*
X116534580Y-62478094D02*
X116582200Y-62430475D01*
X116582200Y-62430475D02*
X116629819Y-62335237D01*
X116629819Y-62335237D02*
X116629819Y-62144761D01*
X116629819Y-62144761D02*
X116582200Y-62049523D01*
X116582200Y-62049523D02*
X116534580Y-62001904D01*
X116534580Y-62001904D02*
X116439342Y-61954285D01*
X116439342Y-61954285D02*
X116248866Y-61954285D01*
X116248866Y-61954285D02*
X116153628Y-62001904D01*
X116153628Y-62001904D02*
X116106009Y-62049523D01*
X116106009Y-62049523D02*
X116058390Y-62144761D01*
X118058333Y-68569580D02*
X118010714Y-68617200D01*
X118010714Y-68617200D02*
X117867857Y-68664819D01*
X117867857Y-68664819D02*
X117772619Y-68664819D01*
X117772619Y-68664819D02*
X117629762Y-68617200D01*
X117629762Y-68617200D02*
X117534524Y-68521961D01*
X117534524Y-68521961D02*
X117486905Y-68426723D01*
X117486905Y-68426723D02*
X117439286Y-68236247D01*
X117439286Y-68236247D02*
X117439286Y-68093390D01*
X117439286Y-68093390D02*
X117486905Y-67902914D01*
X117486905Y-67902914D02*
X117534524Y-67807676D01*
X117534524Y-67807676D02*
X117629762Y-67712438D01*
X117629762Y-67712438D02*
X117772619Y-67664819D01*
X117772619Y-67664819D02*
X117867857Y-67664819D01*
X117867857Y-67664819D02*
X118010714Y-67712438D01*
X118010714Y-67712438D02*
X118058333Y-67760057D01*
X118391667Y-67664819D02*
X119058333Y-67664819D01*
X119058333Y-67664819D02*
X118629762Y-68664819D01*
X132070833Y-75559580D02*
X132023214Y-75607200D01*
X132023214Y-75607200D02*
X131880357Y-75654819D01*
X131880357Y-75654819D02*
X131785119Y-75654819D01*
X131785119Y-75654819D02*
X131642262Y-75607200D01*
X131642262Y-75607200D02*
X131547024Y-75511961D01*
X131547024Y-75511961D02*
X131499405Y-75416723D01*
X131499405Y-75416723D02*
X131451786Y-75226247D01*
X131451786Y-75226247D02*
X131451786Y-75083390D01*
X131451786Y-75083390D02*
X131499405Y-74892914D01*
X131499405Y-74892914D02*
X131547024Y-74797676D01*
X131547024Y-74797676D02*
X131642262Y-74702438D01*
X131642262Y-74702438D02*
X131785119Y-74654819D01*
X131785119Y-74654819D02*
X131880357Y-74654819D01*
X131880357Y-74654819D02*
X132023214Y-74702438D01*
X132023214Y-74702438D02*
X132070833Y-74750057D01*
X132927976Y-74654819D02*
X132737500Y-74654819D01*
X132737500Y-74654819D02*
X132642262Y-74702438D01*
X132642262Y-74702438D02*
X132594643Y-74750057D01*
X132594643Y-74750057D02*
X132499405Y-74892914D01*
X132499405Y-74892914D02*
X132451786Y-75083390D01*
X132451786Y-75083390D02*
X132451786Y-75464342D01*
X132451786Y-75464342D02*
X132499405Y-75559580D01*
X132499405Y-75559580D02*
X132547024Y-75607200D01*
X132547024Y-75607200D02*
X132642262Y-75654819D01*
X132642262Y-75654819D02*
X132832738Y-75654819D01*
X132832738Y-75654819D02*
X132927976Y-75607200D01*
X132927976Y-75607200D02*
X132975595Y-75559580D01*
X132975595Y-75559580D02*
X133023214Y-75464342D01*
X133023214Y-75464342D02*
X133023214Y-75226247D01*
X133023214Y-75226247D02*
X132975595Y-75131009D01*
X132975595Y-75131009D02*
X132927976Y-75083390D01*
X132927976Y-75083390D02*
X132832738Y-75035771D01*
X132832738Y-75035771D02*
X132642262Y-75035771D01*
X132642262Y-75035771D02*
X132547024Y-75083390D01*
X132547024Y-75083390D02*
X132499405Y-75131009D01*
X132499405Y-75131009D02*
X132451786Y-75226247D01*
X117858333Y-86784580D02*
X117810714Y-86832200D01*
X117810714Y-86832200D02*
X117667857Y-86879819D01*
X117667857Y-86879819D02*
X117572619Y-86879819D01*
X117572619Y-86879819D02*
X117429762Y-86832200D01*
X117429762Y-86832200D02*
X117334524Y-86736961D01*
X117334524Y-86736961D02*
X117286905Y-86641723D01*
X117286905Y-86641723D02*
X117239286Y-86451247D01*
X117239286Y-86451247D02*
X117239286Y-86308390D01*
X117239286Y-86308390D02*
X117286905Y-86117914D01*
X117286905Y-86117914D02*
X117334524Y-86022676D01*
X117334524Y-86022676D02*
X117429762Y-85927438D01*
X117429762Y-85927438D02*
X117572619Y-85879819D01*
X117572619Y-85879819D02*
X117667857Y-85879819D01*
X117667857Y-85879819D02*
X117810714Y-85927438D01*
X117810714Y-85927438D02*
X117858333Y-85975057D01*
X118763095Y-85879819D02*
X118286905Y-85879819D01*
X118286905Y-85879819D02*
X118239286Y-86356009D01*
X118239286Y-86356009D02*
X118286905Y-86308390D01*
X118286905Y-86308390D02*
X118382143Y-86260771D01*
X118382143Y-86260771D02*
X118620238Y-86260771D01*
X118620238Y-86260771D02*
X118715476Y-86308390D01*
X118715476Y-86308390D02*
X118763095Y-86356009D01*
X118763095Y-86356009D02*
X118810714Y-86451247D01*
X118810714Y-86451247D02*
X118810714Y-86689342D01*
X118810714Y-86689342D02*
X118763095Y-86784580D01*
X118763095Y-86784580D02*
X118715476Y-86832200D01*
X118715476Y-86832200D02*
X118620238Y-86879819D01*
X118620238Y-86879819D02*
X118382143Y-86879819D01*
X118382143Y-86879819D02*
X118286905Y-86832200D01*
X118286905Y-86832200D02*
X118239286Y-86784580D01*
X129208333Y-80159580D02*
X129160714Y-80207200D01*
X129160714Y-80207200D02*
X129017857Y-80254819D01*
X129017857Y-80254819D02*
X128922619Y-80254819D01*
X128922619Y-80254819D02*
X128779762Y-80207200D01*
X128779762Y-80207200D02*
X128684524Y-80111961D01*
X128684524Y-80111961D02*
X128636905Y-80016723D01*
X128636905Y-80016723D02*
X128589286Y-79826247D01*
X128589286Y-79826247D02*
X128589286Y-79683390D01*
X128589286Y-79683390D02*
X128636905Y-79492914D01*
X128636905Y-79492914D02*
X128684524Y-79397676D01*
X128684524Y-79397676D02*
X128779762Y-79302438D01*
X128779762Y-79302438D02*
X128922619Y-79254819D01*
X128922619Y-79254819D02*
X129017857Y-79254819D01*
X129017857Y-79254819D02*
X129160714Y-79302438D01*
X129160714Y-79302438D02*
X129208333Y-79350057D01*
X130065476Y-79588152D02*
X130065476Y-80254819D01*
X129827381Y-79207200D02*
X129589286Y-79921485D01*
X129589286Y-79921485D02*
X130208333Y-79921485D01*
X127033333Y-75959580D02*
X126985714Y-76007200D01*
X126985714Y-76007200D02*
X126842857Y-76054819D01*
X126842857Y-76054819D02*
X126747619Y-76054819D01*
X126747619Y-76054819D02*
X126604762Y-76007200D01*
X126604762Y-76007200D02*
X126509524Y-75911961D01*
X126509524Y-75911961D02*
X126461905Y-75816723D01*
X126461905Y-75816723D02*
X126414286Y-75626247D01*
X126414286Y-75626247D02*
X126414286Y-75483390D01*
X126414286Y-75483390D02*
X126461905Y-75292914D01*
X126461905Y-75292914D02*
X126509524Y-75197676D01*
X126509524Y-75197676D02*
X126604762Y-75102438D01*
X126604762Y-75102438D02*
X126747619Y-75054819D01*
X126747619Y-75054819D02*
X126842857Y-75054819D01*
X126842857Y-75054819D02*
X126985714Y-75102438D01*
X126985714Y-75102438D02*
X127033333Y-75150057D01*
X127366667Y-75054819D02*
X127985714Y-75054819D01*
X127985714Y-75054819D02*
X127652381Y-75435771D01*
X127652381Y-75435771D02*
X127795238Y-75435771D01*
X127795238Y-75435771D02*
X127890476Y-75483390D01*
X127890476Y-75483390D02*
X127938095Y-75531009D01*
X127938095Y-75531009D02*
X127985714Y-75626247D01*
X127985714Y-75626247D02*
X127985714Y-75864342D01*
X127985714Y-75864342D02*
X127938095Y-75959580D01*
X127938095Y-75959580D02*
X127890476Y-76007200D01*
X127890476Y-76007200D02*
X127795238Y-76054819D01*
X127795238Y-76054819D02*
X127509524Y-76054819D01*
X127509524Y-76054819D02*
X127414286Y-76007200D01*
X127414286Y-76007200D02*
X127366667Y-75959580D01*
X125108333Y-82009580D02*
X125060714Y-82057200D01*
X125060714Y-82057200D02*
X124917857Y-82104819D01*
X124917857Y-82104819D02*
X124822619Y-82104819D01*
X124822619Y-82104819D02*
X124679762Y-82057200D01*
X124679762Y-82057200D02*
X124584524Y-81961961D01*
X124584524Y-81961961D02*
X124536905Y-81866723D01*
X124536905Y-81866723D02*
X124489286Y-81676247D01*
X124489286Y-81676247D02*
X124489286Y-81533390D01*
X124489286Y-81533390D02*
X124536905Y-81342914D01*
X124536905Y-81342914D02*
X124584524Y-81247676D01*
X124584524Y-81247676D02*
X124679762Y-81152438D01*
X124679762Y-81152438D02*
X124822619Y-81104819D01*
X124822619Y-81104819D02*
X124917857Y-81104819D01*
X124917857Y-81104819D02*
X125060714Y-81152438D01*
X125060714Y-81152438D02*
X125108333Y-81200057D01*
X125489286Y-81200057D02*
X125536905Y-81152438D01*
X125536905Y-81152438D02*
X125632143Y-81104819D01*
X125632143Y-81104819D02*
X125870238Y-81104819D01*
X125870238Y-81104819D02*
X125965476Y-81152438D01*
X125965476Y-81152438D02*
X126013095Y-81200057D01*
X126013095Y-81200057D02*
X126060714Y-81295295D01*
X126060714Y-81295295D02*
X126060714Y-81390533D01*
X126060714Y-81390533D02*
X126013095Y-81533390D01*
X126013095Y-81533390D02*
X125441667Y-82104819D01*
X125441667Y-82104819D02*
X126060714Y-82104819D01*
X127558333Y-81909580D02*
X127510714Y-81957200D01*
X127510714Y-81957200D02*
X127367857Y-82004819D01*
X127367857Y-82004819D02*
X127272619Y-82004819D01*
X127272619Y-82004819D02*
X127129762Y-81957200D01*
X127129762Y-81957200D02*
X127034524Y-81861961D01*
X127034524Y-81861961D02*
X126986905Y-81766723D01*
X126986905Y-81766723D02*
X126939286Y-81576247D01*
X126939286Y-81576247D02*
X126939286Y-81433390D01*
X126939286Y-81433390D02*
X126986905Y-81242914D01*
X126986905Y-81242914D02*
X127034524Y-81147676D01*
X127034524Y-81147676D02*
X127129762Y-81052438D01*
X127129762Y-81052438D02*
X127272619Y-81004819D01*
X127272619Y-81004819D02*
X127367857Y-81004819D01*
X127367857Y-81004819D02*
X127510714Y-81052438D01*
X127510714Y-81052438D02*
X127558333Y-81100057D01*
X128510714Y-82004819D02*
X127939286Y-82004819D01*
X128225000Y-82004819D02*
X128225000Y-81004819D01*
X128225000Y-81004819D02*
X128129762Y-81147676D01*
X128129762Y-81147676D02*
X128034524Y-81242914D01*
X128034524Y-81242914D02*
X127939286Y-81290533D01*
X170138095Y-63146208D02*
X170138095Y-63955731D01*
X170138095Y-63955731D02*
X170185714Y-64050969D01*
X170185714Y-64050969D02*
X170233333Y-64098589D01*
X170233333Y-64098589D02*
X170328571Y-64146208D01*
X170328571Y-64146208D02*
X170519047Y-64146208D01*
X170519047Y-64146208D02*
X170614285Y-64098589D01*
X170614285Y-64098589D02*
X170661904Y-64050969D01*
X170661904Y-64050969D02*
X170709523Y-63955731D01*
X170709523Y-63955731D02*
X170709523Y-63146208D01*
X171090476Y-63146208D02*
X171709523Y-63146208D01*
X171709523Y-63146208D02*
X171376190Y-63527160D01*
X171376190Y-63527160D02*
X171519047Y-63527160D01*
X171519047Y-63527160D02*
X171614285Y-63574779D01*
X171614285Y-63574779D02*
X171661904Y-63622398D01*
X171661904Y-63622398D02*
X171709523Y-63717636D01*
X171709523Y-63717636D02*
X171709523Y-63955731D01*
X171709523Y-63955731D02*
X171661904Y-64050969D01*
X171661904Y-64050969D02*
X171614285Y-64098589D01*
X171614285Y-64098589D02*
X171519047Y-64146208D01*
X171519047Y-64146208D02*
X171233333Y-64146208D01*
X171233333Y-64146208D02*
X171138095Y-64098589D01*
X171138095Y-64098589D02*
X171090476Y-64050969D01*
X162535714Y-81996208D02*
X162535714Y-80996208D01*
X162535714Y-80996208D02*
X162773809Y-80996208D01*
X162773809Y-80996208D02*
X162916666Y-81043827D01*
X162916666Y-81043827D02*
X163011904Y-81139065D01*
X163011904Y-81139065D02*
X163059523Y-81234303D01*
X163059523Y-81234303D02*
X163107142Y-81424779D01*
X163107142Y-81424779D02*
X163107142Y-81567636D01*
X163107142Y-81567636D02*
X163059523Y-81758112D01*
X163059523Y-81758112D02*
X163011904Y-81853350D01*
X163011904Y-81853350D02*
X162916666Y-81948589D01*
X162916666Y-81948589D02*
X162773809Y-81996208D01*
X162773809Y-81996208D02*
X162535714Y-81996208D01*
X164059523Y-81996208D02*
X163488095Y-81996208D01*
X163773809Y-81996208D02*
X163773809Y-80996208D01*
X163773809Y-80996208D02*
X163678571Y-81139065D01*
X163678571Y-81139065D02*
X163583333Y-81234303D01*
X163583333Y-81234303D02*
X163488095Y-81281922D01*
X164440476Y-81091446D02*
X164488095Y-81043827D01*
X164488095Y-81043827D02*
X164583333Y-80996208D01*
X164583333Y-80996208D02*
X164821428Y-80996208D01*
X164821428Y-80996208D02*
X164916666Y-81043827D01*
X164916666Y-81043827D02*
X164964285Y-81091446D01*
X164964285Y-81091446D02*
X165011904Y-81186684D01*
X165011904Y-81186684D02*
X165011904Y-81281922D01*
X165011904Y-81281922D02*
X164964285Y-81424779D01*
X164964285Y-81424779D02*
X164392857Y-81996208D01*
X164392857Y-81996208D02*
X165011904Y-81996208D01*
D11*
X171689928Y-76932067D02*
X171689928Y-76612067D01*
X171689928Y-76612067D02*
X171766118Y-76612067D01*
X171766118Y-76612067D02*
X171811833Y-76627305D01*
X171811833Y-76627305D02*
X171842309Y-76657781D01*
X171842309Y-76657781D02*
X171857547Y-76688257D01*
X171857547Y-76688257D02*
X171872785Y-76749209D01*
X171872785Y-76749209D02*
X171872785Y-76794924D01*
X171872785Y-76794924D02*
X171857547Y-76855876D01*
X171857547Y-76855876D02*
X171842309Y-76886352D01*
X171842309Y-76886352D02*
X171811833Y-76916829D01*
X171811833Y-76916829D02*
X171766118Y-76932067D01*
X171766118Y-76932067D02*
X171689928Y-76932067D01*
X172177547Y-76932067D02*
X171994690Y-76932067D01*
X172086118Y-76932067D02*
X172086118Y-76612067D01*
X172086118Y-76612067D02*
X172055642Y-76657781D01*
X172055642Y-76657781D02*
X172025166Y-76688257D01*
X172025166Y-76688257D02*
X171994690Y-76703495D01*
X172375642Y-76612067D02*
X172406119Y-76612067D01*
X172406119Y-76612067D02*
X172436595Y-76627305D01*
X172436595Y-76627305D02*
X172451833Y-76642543D01*
X172451833Y-76642543D02*
X172467071Y-76673019D01*
X172467071Y-76673019D02*
X172482309Y-76733971D01*
X172482309Y-76733971D02*
X172482309Y-76810162D01*
X172482309Y-76810162D02*
X172467071Y-76871114D01*
X172467071Y-76871114D02*
X172451833Y-76901590D01*
X172451833Y-76901590D02*
X172436595Y-76916829D01*
X172436595Y-76916829D02*
X172406119Y-76932067D01*
X172406119Y-76932067D02*
X172375642Y-76932067D01*
X172375642Y-76932067D02*
X172345166Y-76916829D01*
X172345166Y-76916829D02*
X172329928Y-76901590D01*
X172329928Y-76901590D02*
X172314690Y-76871114D01*
X172314690Y-76871114D02*
X172299452Y-76810162D01*
X172299452Y-76810162D02*
X172299452Y-76733971D01*
X172299452Y-76733971D02*
X172314690Y-76673019D01*
X172314690Y-76673019D02*
X172329928Y-76642543D01*
X172329928Y-76642543D02*
X172345166Y-76627305D01*
X172345166Y-76627305D02*
X172375642Y-76612067D01*
D10*
X172516667Y-59657200D02*
X172659524Y-59704819D01*
X172659524Y-59704819D02*
X172897619Y-59704819D01*
X172897619Y-59704819D02*
X172992857Y-59657200D01*
X172992857Y-59657200D02*
X173040476Y-59609580D01*
X173040476Y-59609580D02*
X173088095Y-59514342D01*
X173088095Y-59514342D02*
X173088095Y-59419104D01*
X173088095Y-59419104D02*
X173040476Y-59323866D01*
X173040476Y-59323866D02*
X172992857Y-59276247D01*
X172992857Y-59276247D02*
X172897619Y-59228628D01*
X172897619Y-59228628D02*
X172707143Y-59181009D01*
X172707143Y-59181009D02*
X172611905Y-59133390D01*
X172611905Y-59133390D02*
X172564286Y-59085771D01*
X172564286Y-59085771D02*
X172516667Y-58990533D01*
X172516667Y-58990533D02*
X172516667Y-58895295D01*
X172516667Y-58895295D02*
X172564286Y-58800057D01*
X172564286Y-58800057D02*
X172611905Y-58752438D01*
X172611905Y-58752438D02*
X172707143Y-58704819D01*
X172707143Y-58704819D02*
X172945238Y-58704819D01*
X172945238Y-58704819D02*
X173088095Y-58752438D01*
X173421429Y-58704819D02*
X173659524Y-59704819D01*
X173659524Y-59704819D02*
X173850000Y-58990533D01*
X173850000Y-58990533D02*
X174040476Y-59704819D01*
X174040476Y-59704819D02*
X174278572Y-58704819D01*
X174564286Y-58704819D02*
X175183333Y-58704819D01*
X175183333Y-58704819D02*
X174850000Y-59085771D01*
X174850000Y-59085771D02*
X174992857Y-59085771D01*
X174992857Y-59085771D02*
X175088095Y-59133390D01*
X175088095Y-59133390D02*
X175135714Y-59181009D01*
X175135714Y-59181009D02*
X175183333Y-59276247D01*
X175183333Y-59276247D02*
X175183333Y-59514342D01*
X175183333Y-59514342D02*
X175135714Y-59609580D01*
X175135714Y-59609580D02*
X175088095Y-59657200D01*
X175088095Y-59657200D02*
X174992857Y-59704819D01*
X174992857Y-59704819D02*
X174707143Y-59704819D01*
X174707143Y-59704819D02*
X174611905Y-59657200D01*
X174611905Y-59657200D02*
X174564286Y-59609580D01*
D12*
X167495124Y-73007565D02*
X167495124Y-72526765D01*
X167495124Y-72526765D02*
X167609600Y-72526765D01*
X167609600Y-72526765D02*
X167678286Y-72549660D01*
X167678286Y-72549660D02*
X167724076Y-72595450D01*
X167724076Y-72595450D02*
X167746971Y-72641241D01*
X167746971Y-72641241D02*
X167769867Y-72732822D01*
X167769867Y-72732822D02*
X167769867Y-72801508D01*
X167769867Y-72801508D02*
X167746971Y-72893089D01*
X167746971Y-72893089D02*
X167724076Y-72938879D01*
X167724076Y-72938879D02*
X167678286Y-72984670D01*
X167678286Y-72984670D02*
X167609600Y-73007565D01*
X167609600Y-73007565D02*
X167495124Y-73007565D01*
X167930133Y-72526765D02*
X168250667Y-72526765D01*
X168250667Y-72526765D02*
X168044609Y-73007565D01*
D10*
X143238095Y-58146208D02*
X143238095Y-58955731D01*
X143238095Y-58955731D02*
X143285714Y-59050969D01*
X143285714Y-59050969D02*
X143333333Y-59098589D01*
X143333333Y-59098589D02*
X143428571Y-59146208D01*
X143428571Y-59146208D02*
X143619047Y-59146208D01*
X143619047Y-59146208D02*
X143714285Y-59098589D01*
X143714285Y-59098589D02*
X143761904Y-59050969D01*
X143761904Y-59050969D02*
X143809523Y-58955731D01*
X143809523Y-58955731D02*
X143809523Y-58146208D01*
X144714285Y-58479541D02*
X144714285Y-59146208D01*
X144476190Y-58098589D02*
X144238095Y-58812874D01*
X144238095Y-58812874D02*
X144857142Y-58812874D01*
X141716666Y-61326208D02*
X141716666Y-62040493D01*
X141716666Y-62040493D02*
X141669047Y-62183350D01*
X141669047Y-62183350D02*
X141573809Y-62278589D01*
X141573809Y-62278589D02*
X141430952Y-62326208D01*
X141430952Y-62326208D02*
X141335714Y-62326208D01*
X142097619Y-61326208D02*
X142716666Y-61326208D01*
X142716666Y-61326208D02*
X142383333Y-61707160D01*
X142383333Y-61707160D02*
X142526190Y-61707160D01*
X142526190Y-61707160D02*
X142621428Y-61754779D01*
X142621428Y-61754779D02*
X142669047Y-61802398D01*
X142669047Y-61802398D02*
X142716666Y-61897636D01*
X142716666Y-61897636D02*
X142716666Y-62135731D01*
X142716666Y-62135731D02*
X142669047Y-62230969D01*
X142669047Y-62230969D02*
X142621428Y-62278589D01*
X142621428Y-62278589D02*
X142526190Y-62326208D01*
X142526190Y-62326208D02*
X142240476Y-62326208D01*
X142240476Y-62326208D02*
X142145238Y-62278589D01*
X142145238Y-62278589D02*
X142097619Y-62230969D01*
X178204819Y-84374722D02*
X178919104Y-84374722D01*
X178919104Y-84374722D02*
X179061961Y-84422341D01*
X179061961Y-84422341D02*
X179157200Y-84517579D01*
X179157200Y-84517579D02*
X179204819Y-84660436D01*
X179204819Y-84660436D02*
X179204819Y-84755674D01*
X178300057Y-83946150D02*
X178252438Y-83898531D01*
X178252438Y-83898531D02*
X178204819Y-83803293D01*
X178204819Y-83803293D02*
X178204819Y-83565198D01*
X178204819Y-83565198D02*
X178252438Y-83469960D01*
X178252438Y-83469960D02*
X178300057Y-83422341D01*
X178300057Y-83422341D02*
X178395295Y-83374722D01*
X178395295Y-83374722D02*
X178490533Y-83374722D01*
X178490533Y-83374722D02*
X178633390Y-83422341D01*
X178633390Y-83422341D02*
X179204819Y-83993769D01*
X179204819Y-83993769D02*
X179204819Y-83374722D01*
D11*
X171842309Y-74932067D02*
X171842309Y-74612067D01*
X171842309Y-74612067D02*
X171918499Y-74612067D01*
X171918499Y-74612067D02*
X171964214Y-74627305D01*
X171964214Y-74627305D02*
X171994690Y-74657781D01*
X171994690Y-74657781D02*
X172009928Y-74688257D01*
X172009928Y-74688257D02*
X172025166Y-74749209D01*
X172025166Y-74749209D02*
X172025166Y-74794924D01*
X172025166Y-74794924D02*
X172009928Y-74855876D01*
X172009928Y-74855876D02*
X171994690Y-74886352D01*
X171994690Y-74886352D02*
X171964214Y-74916829D01*
X171964214Y-74916829D02*
X171918499Y-74932067D01*
X171918499Y-74932067D02*
X171842309Y-74932067D01*
X172208023Y-74749209D02*
X172177547Y-74733971D01*
X172177547Y-74733971D02*
X172162309Y-74718733D01*
X172162309Y-74718733D02*
X172147071Y-74688257D01*
X172147071Y-74688257D02*
X172147071Y-74673019D01*
X172147071Y-74673019D02*
X172162309Y-74642543D01*
X172162309Y-74642543D02*
X172177547Y-74627305D01*
X172177547Y-74627305D02*
X172208023Y-74612067D01*
X172208023Y-74612067D02*
X172268976Y-74612067D01*
X172268976Y-74612067D02*
X172299452Y-74627305D01*
X172299452Y-74627305D02*
X172314690Y-74642543D01*
X172314690Y-74642543D02*
X172329928Y-74673019D01*
X172329928Y-74673019D02*
X172329928Y-74688257D01*
X172329928Y-74688257D02*
X172314690Y-74718733D01*
X172314690Y-74718733D02*
X172299452Y-74733971D01*
X172299452Y-74733971D02*
X172268976Y-74749209D01*
X172268976Y-74749209D02*
X172208023Y-74749209D01*
X172208023Y-74749209D02*
X172177547Y-74764448D01*
X172177547Y-74764448D02*
X172162309Y-74779686D01*
X172162309Y-74779686D02*
X172147071Y-74810162D01*
X172147071Y-74810162D02*
X172147071Y-74871114D01*
X172147071Y-74871114D02*
X172162309Y-74901590D01*
X172162309Y-74901590D02*
X172177547Y-74916829D01*
X172177547Y-74916829D02*
X172208023Y-74932067D01*
X172208023Y-74932067D02*
X172268976Y-74932067D01*
X172268976Y-74932067D02*
X172299452Y-74916829D01*
X172299452Y-74916829D02*
X172314690Y-74901590D01*
X172314690Y-74901590D02*
X172329928Y-74871114D01*
X172329928Y-74871114D02*
X172329928Y-74810162D01*
X172329928Y-74810162D02*
X172314690Y-74779686D01*
X172314690Y-74779686D02*
X172299452Y-74764448D01*
X172299452Y-74764448D02*
X172268976Y-74749209D01*
D10*
X162516667Y-59682200D02*
X162659524Y-59729819D01*
X162659524Y-59729819D02*
X162897619Y-59729819D01*
X162897619Y-59729819D02*
X162992857Y-59682200D01*
X162992857Y-59682200D02*
X163040476Y-59634580D01*
X163040476Y-59634580D02*
X163088095Y-59539342D01*
X163088095Y-59539342D02*
X163088095Y-59444104D01*
X163088095Y-59444104D02*
X163040476Y-59348866D01*
X163040476Y-59348866D02*
X162992857Y-59301247D01*
X162992857Y-59301247D02*
X162897619Y-59253628D01*
X162897619Y-59253628D02*
X162707143Y-59206009D01*
X162707143Y-59206009D02*
X162611905Y-59158390D01*
X162611905Y-59158390D02*
X162564286Y-59110771D01*
X162564286Y-59110771D02*
X162516667Y-59015533D01*
X162516667Y-59015533D02*
X162516667Y-58920295D01*
X162516667Y-58920295D02*
X162564286Y-58825057D01*
X162564286Y-58825057D02*
X162611905Y-58777438D01*
X162611905Y-58777438D02*
X162707143Y-58729819D01*
X162707143Y-58729819D02*
X162945238Y-58729819D01*
X162945238Y-58729819D02*
X163088095Y-58777438D01*
X163421429Y-58729819D02*
X163659524Y-59729819D01*
X163659524Y-59729819D02*
X163850000Y-59015533D01*
X163850000Y-59015533D02*
X164040476Y-59729819D01*
X164040476Y-59729819D02*
X164278572Y-58729819D01*
X165088095Y-59063152D02*
X165088095Y-59729819D01*
X164850000Y-58682200D02*
X164611905Y-59396485D01*
X164611905Y-59396485D02*
X165230952Y-59396485D01*
D11*
X171842309Y-78932067D02*
X171842309Y-78612067D01*
X171842309Y-78612067D02*
X171918499Y-78612067D01*
X171918499Y-78612067D02*
X171964214Y-78627305D01*
X171964214Y-78627305D02*
X171994690Y-78657781D01*
X171994690Y-78657781D02*
X172009928Y-78688257D01*
X172009928Y-78688257D02*
X172025166Y-78749209D01*
X172025166Y-78749209D02*
X172025166Y-78794924D01*
X172025166Y-78794924D02*
X172009928Y-78855876D01*
X172009928Y-78855876D02*
X171994690Y-78886352D01*
X171994690Y-78886352D02*
X171964214Y-78916829D01*
X171964214Y-78916829D02*
X171918499Y-78932067D01*
X171918499Y-78932067D02*
X171842309Y-78932067D01*
X172177547Y-78932067D02*
X172238499Y-78932067D01*
X172238499Y-78932067D02*
X172268976Y-78916829D01*
X172268976Y-78916829D02*
X172284214Y-78901590D01*
X172284214Y-78901590D02*
X172314690Y-78855876D01*
X172314690Y-78855876D02*
X172329928Y-78794924D01*
X172329928Y-78794924D02*
X172329928Y-78673019D01*
X172329928Y-78673019D02*
X172314690Y-78642543D01*
X172314690Y-78642543D02*
X172299452Y-78627305D01*
X172299452Y-78627305D02*
X172268976Y-78612067D01*
X172268976Y-78612067D02*
X172208023Y-78612067D01*
X172208023Y-78612067D02*
X172177547Y-78627305D01*
X172177547Y-78627305D02*
X172162309Y-78642543D01*
X172162309Y-78642543D02*
X172147071Y-78673019D01*
X172147071Y-78673019D02*
X172147071Y-78749209D01*
X172147071Y-78749209D02*
X172162309Y-78779686D01*
X172162309Y-78779686D02*
X172177547Y-78794924D01*
X172177547Y-78794924D02*
X172208023Y-78810162D01*
X172208023Y-78810162D02*
X172268976Y-78810162D01*
X172268976Y-78810162D02*
X172299452Y-78794924D01*
X172299452Y-78794924D02*
X172314690Y-78779686D01*
X172314690Y-78779686D02*
X172329928Y-78749209D01*
X134947078Y-84854690D02*
X134627078Y-84854690D01*
X134627078Y-84854690D02*
X134627078Y-84778500D01*
X134627078Y-84778500D02*
X134642316Y-84732785D01*
X134642316Y-84732785D02*
X134672792Y-84702309D01*
X134672792Y-84702309D02*
X134703268Y-84687071D01*
X134703268Y-84687071D02*
X134764220Y-84671833D01*
X134764220Y-84671833D02*
X134809935Y-84671833D01*
X134809935Y-84671833D02*
X134870887Y-84687071D01*
X134870887Y-84687071D02*
X134901363Y-84702309D01*
X134901363Y-84702309D02*
X134931840Y-84732785D01*
X134931840Y-84732785D02*
X134947078Y-84778500D01*
X134947078Y-84778500D02*
X134947078Y-84854690D01*
X134657554Y-84549928D02*
X134642316Y-84534690D01*
X134642316Y-84534690D02*
X134627078Y-84504214D01*
X134627078Y-84504214D02*
X134627078Y-84428023D01*
X134627078Y-84428023D02*
X134642316Y-84397547D01*
X134642316Y-84397547D02*
X134657554Y-84382309D01*
X134657554Y-84382309D02*
X134688030Y-84367071D01*
X134688030Y-84367071D02*
X134718506Y-84367071D01*
X134718506Y-84367071D02*
X134764220Y-84382309D01*
X134764220Y-84382309D02*
X134947078Y-84565166D01*
X134947078Y-84565166D02*
X134947078Y-84367071D01*
D10*
X113569819Y-81379404D02*
X114379342Y-81379404D01*
X114379342Y-81379404D02*
X114474580Y-81331785D01*
X114474580Y-81331785D02*
X114522200Y-81284166D01*
X114522200Y-81284166D02*
X114569819Y-81188928D01*
X114569819Y-81188928D02*
X114569819Y-80998452D01*
X114569819Y-80998452D02*
X114522200Y-80903214D01*
X114522200Y-80903214D02*
X114474580Y-80855595D01*
X114474580Y-80855595D02*
X114379342Y-80807976D01*
X114379342Y-80807976D02*
X113569819Y-80807976D01*
X114569819Y-79807976D02*
X114569819Y-80379404D01*
X114569819Y-80093690D02*
X113569819Y-80093690D01*
X113569819Y-80093690D02*
X113712676Y-80188928D01*
X113712676Y-80188928D02*
X113807914Y-80284166D01*
X113807914Y-80284166D02*
X113855533Y-80379404D01*
X132466667Y-66082200D02*
X132609524Y-66129819D01*
X132609524Y-66129819D02*
X132847619Y-66129819D01*
X132847619Y-66129819D02*
X132942857Y-66082200D01*
X132942857Y-66082200D02*
X132990476Y-66034580D01*
X132990476Y-66034580D02*
X133038095Y-65939342D01*
X133038095Y-65939342D02*
X133038095Y-65844104D01*
X133038095Y-65844104D02*
X132990476Y-65748866D01*
X132990476Y-65748866D02*
X132942857Y-65701247D01*
X132942857Y-65701247D02*
X132847619Y-65653628D01*
X132847619Y-65653628D02*
X132657143Y-65606009D01*
X132657143Y-65606009D02*
X132561905Y-65558390D01*
X132561905Y-65558390D02*
X132514286Y-65510771D01*
X132514286Y-65510771D02*
X132466667Y-65415533D01*
X132466667Y-65415533D02*
X132466667Y-65320295D01*
X132466667Y-65320295D02*
X132514286Y-65225057D01*
X132514286Y-65225057D02*
X132561905Y-65177438D01*
X132561905Y-65177438D02*
X132657143Y-65129819D01*
X132657143Y-65129819D02*
X132895238Y-65129819D01*
X132895238Y-65129819D02*
X133038095Y-65177438D01*
X133371429Y-65129819D02*
X133609524Y-66129819D01*
X133609524Y-66129819D02*
X133800000Y-65415533D01*
X133800000Y-65415533D02*
X133990476Y-66129819D01*
X133990476Y-66129819D02*
X134228572Y-65129819D01*
X134561905Y-65225057D02*
X134609524Y-65177438D01*
X134609524Y-65177438D02*
X134704762Y-65129819D01*
X134704762Y-65129819D02*
X134942857Y-65129819D01*
X134942857Y-65129819D02*
X135038095Y-65177438D01*
X135038095Y-65177438D02*
X135085714Y-65225057D01*
X135085714Y-65225057D02*
X135133333Y-65320295D01*
X135133333Y-65320295D02*
X135133333Y-65415533D01*
X135133333Y-65415533D02*
X135085714Y-65558390D01*
X135085714Y-65558390D02*
X134514286Y-66129819D01*
X134514286Y-66129819D02*
X135133333Y-66129819D01*
X124416667Y-66082200D02*
X124559524Y-66129819D01*
X124559524Y-66129819D02*
X124797619Y-66129819D01*
X124797619Y-66129819D02*
X124892857Y-66082200D01*
X124892857Y-66082200D02*
X124940476Y-66034580D01*
X124940476Y-66034580D02*
X124988095Y-65939342D01*
X124988095Y-65939342D02*
X124988095Y-65844104D01*
X124988095Y-65844104D02*
X124940476Y-65748866D01*
X124940476Y-65748866D02*
X124892857Y-65701247D01*
X124892857Y-65701247D02*
X124797619Y-65653628D01*
X124797619Y-65653628D02*
X124607143Y-65606009D01*
X124607143Y-65606009D02*
X124511905Y-65558390D01*
X124511905Y-65558390D02*
X124464286Y-65510771D01*
X124464286Y-65510771D02*
X124416667Y-65415533D01*
X124416667Y-65415533D02*
X124416667Y-65320295D01*
X124416667Y-65320295D02*
X124464286Y-65225057D01*
X124464286Y-65225057D02*
X124511905Y-65177438D01*
X124511905Y-65177438D02*
X124607143Y-65129819D01*
X124607143Y-65129819D02*
X124845238Y-65129819D01*
X124845238Y-65129819D02*
X124988095Y-65177438D01*
X125321429Y-65129819D02*
X125559524Y-66129819D01*
X125559524Y-66129819D02*
X125750000Y-65415533D01*
X125750000Y-65415533D02*
X125940476Y-66129819D01*
X125940476Y-66129819D02*
X126178572Y-65129819D01*
X127083333Y-66129819D02*
X126511905Y-66129819D01*
X126797619Y-66129819D02*
X126797619Y-65129819D01*
X126797619Y-65129819D02*
X126702381Y-65272676D01*
X126702381Y-65272676D02*
X126607143Y-65367914D01*
X126607143Y-65367914D02*
X126511905Y-65415533D01*
X113616666Y-53614819D02*
X113616666Y-54329104D01*
X113616666Y-54329104D02*
X113569047Y-54471961D01*
X113569047Y-54471961D02*
X113473809Y-54567200D01*
X113473809Y-54567200D02*
X113330952Y-54614819D01*
X113330952Y-54614819D02*
X113235714Y-54614819D01*
X114521428Y-53948152D02*
X114521428Y-54614819D01*
X114283333Y-53567200D02*
X114045238Y-54281485D01*
X114045238Y-54281485D02*
X114664285Y-54281485D01*
X127916666Y-86029819D02*
X127916666Y-86744104D01*
X127916666Y-86744104D02*
X127869047Y-86886961D01*
X127869047Y-86886961D02*
X127773809Y-86982200D01*
X127773809Y-86982200D02*
X127630952Y-87029819D01*
X127630952Y-87029819D02*
X127535714Y-87029819D01*
X128916666Y-87029819D02*
X128345238Y-87029819D01*
X128630952Y-87029819D02*
X128630952Y-86029819D01*
X128630952Y-86029819D02*
X128535714Y-86172676D01*
X128535714Y-86172676D02*
X128440476Y-86267914D01*
X128440476Y-86267914D02*
X128345238Y-86315533D01*
X124311905Y-75994819D02*
X124311905Y-74994819D01*
X124311905Y-74994819D02*
X124550000Y-74994819D01*
X124550000Y-74994819D02*
X124692857Y-75042438D01*
X124692857Y-75042438D02*
X124788095Y-75137676D01*
X124788095Y-75137676D02*
X124835714Y-75232914D01*
X124835714Y-75232914D02*
X124883333Y-75423390D01*
X124883333Y-75423390D02*
X124883333Y-75566247D01*
X124883333Y-75566247D02*
X124835714Y-75756723D01*
X124835714Y-75756723D02*
X124788095Y-75851961D01*
X124788095Y-75851961D02*
X124692857Y-75947200D01*
X124692857Y-75947200D02*
X124550000Y-75994819D01*
X124550000Y-75994819D02*
X124311905Y-75994819D01*
X125740476Y-74994819D02*
X125550000Y-74994819D01*
X125550000Y-74994819D02*
X125454762Y-75042438D01*
X125454762Y-75042438D02*
X125407143Y-75090057D01*
X125407143Y-75090057D02*
X125311905Y-75232914D01*
X125311905Y-75232914D02*
X125264286Y-75423390D01*
X125264286Y-75423390D02*
X125264286Y-75804342D01*
X125264286Y-75804342D02*
X125311905Y-75899580D01*
X125311905Y-75899580D02*
X125359524Y-75947200D01*
X125359524Y-75947200D02*
X125454762Y-75994819D01*
X125454762Y-75994819D02*
X125645238Y-75994819D01*
X125645238Y-75994819D02*
X125740476Y-75947200D01*
X125740476Y-75947200D02*
X125788095Y-75899580D01*
X125788095Y-75899580D02*
X125835714Y-75804342D01*
X125835714Y-75804342D02*
X125835714Y-75566247D01*
X125835714Y-75566247D02*
X125788095Y-75471009D01*
X125788095Y-75471009D02*
X125740476Y-75423390D01*
X125740476Y-75423390D02*
X125645238Y-75375771D01*
X125645238Y-75375771D02*
X125454762Y-75375771D01*
X125454762Y-75375771D02*
X125359524Y-75423390D01*
X125359524Y-75423390D02*
X125311905Y-75471009D01*
X125311905Y-75471009D02*
X125264286Y-75566247D01*
X114688095Y-33954819D02*
X114688095Y-34764342D01*
X114688095Y-34764342D02*
X114735714Y-34859580D01*
X114735714Y-34859580D02*
X114783333Y-34907200D01*
X114783333Y-34907200D02*
X114878571Y-34954819D01*
X114878571Y-34954819D02*
X115069047Y-34954819D01*
X115069047Y-34954819D02*
X115164285Y-34907200D01*
X115164285Y-34907200D02*
X115211904Y-34859580D01*
X115211904Y-34859580D02*
X115259523Y-34764342D01*
X115259523Y-34764342D02*
X115259523Y-33954819D01*
X115688095Y-34050057D02*
X115735714Y-34002438D01*
X115735714Y-34002438D02*
X115830952Y-33954819D01*
X115830952Y-33954819D02*
X116069047Y-33954819D01*
X116069047Y-33954819D02*
X116164285Y-34002438D01*
X116164285Y-34002438D02*
X116211904Y-34050057D01*
X116211904Y-34050057D02*
X116259523Y-34145295D01*
X116259523Y-34145295D02*
X116259523Y-34240533D01*
X116259523Y-34240533D02*
X116211904Y-34383390D01*
X116211904Y-34383390D02*
X115640476Y-34954819D01*
X115640476Y-34954819D02*
X116259523Y-34954819D01*
D11*
X132847078Y-84932190D02*
X132527078Y-84932190D01*
X132527078Y-84932190D02*
X132527078Y-84856000D01*
X132527078Y-84856000D02*
X132542316Y-84810285D01*
X132542316Y-84810285D02*
X132572792Y-84779809D01*
X132572792Y-84779809D02*
X132603268Y-84764571D01*
X132603268Y-84764571D02*
X132664220Y-84749333D01*
X132664220Y-84749333D02*
X132709935Y-84749333D01*
X132709935Y-84749333D02*
X132770887Y-84764571D01*
X132770887Y-84764571D02*
X132801363Y-84779809D01*
X132801363Y-84779809D02*
X132831840Y-84810285D01*
X132831840Y-84810285D02*
X132847078Y-84856000D01*
X132847078Y-84856000D02*
X132847078Y-84932190D01*
X132633744Y-84475047D02*
X132847078Y-84475047D01*
X132511840Y-84551238D02*
X132740411Y-84627428D01*
X132740411Y-84627428D02*
X132740411Y-84429333D01*
D12*
X123445124Y-89716176D02*
X123445124Y-89235376D01*
X123445124Y-89235376D02*
X123559600Y-89235376D01*
X123559600Y-89235376D02*
X123628286Y-89258271D01*
X123628286Y-89258271D02*
X123674076Y-89304061D01*
X123674076Y-89304061D02*
X123696971Y-89349852D01*
X123696971Y-89349852D02*
X123719867Y-89441433D01*
X123719867Y-89441433D02*
X123719867Y-89510119D01*
X123719867Y-89510119D02*
X123696971Y-89601700D01*
X123696971Y-89601700D02*
X123674076Y-89647490D01*
X123674076Y-89647490D02*
X123628286Y-89693281D01*
X123628286Y-89693281D02*
X123559600Y-89716176D01*
X123559600Y-89716176D02*
X123445124Y-89716176D01*
X124177771Y-89716176D02*
X123903028Y-89716176D01*
X124040400Y-89716176D02*
X124040400Y-89235376D01*
X124040400Y-89235376D02*
X123994609Y-89304061D01*
X123994609Y-89304061D02*
X123948819Y-89349852D01*
X123948819Y-89349852D02*
X123903028Y-89372747D01*
D11*
X130697078Y-84942190D02*
X130377078Y-84942190D01*
X130377078Y-84942190D02*
X130377078Y-84866000D01*
X130377078Y-84866000D02*
X130392316Y-84820285D01*
X130392316Y-84820285D02*
X130422792Y-84789809D01*
X130422792Y-84789809D02*
X130453268Y-84774571D01*
X130453268Y-84774571D02*
X130514220Y-84759333D01*
X130514220Y-84759333D02*
X130559935Y-84759333D01*
X130559935Y-84759333D02*
X130620887Y-84774571D01*
X130620887Y-84774571D02*
X130651363Y-84789809D01*
X130651363Y-84789809D02*
X130681840Y-84820285D01*
X130681840Y-84820285D02*
X130697078Y-84866000D01*
X130697078Y-84866000D02*
X130697078Y-84942190D01*
X130377078Y-84652666D02*
X130377078Y-84454571D01*
X130377078Y-84454571D02*
X130498982Y-84561238D01*
X130498982Y-84561238D02*
X130498982Y-84515523D01*
X130498982Y-84515523D02*
X130514220Y-84485047D01*
X130514220Y-84485047D02*
X130529459Y-84469809D01*
X130529459Y-84469809D02*
X130559935Y-84454571D01*
X130559935Y-84454571D02*
X130636125Y-84454571D01*
X130636125Y-84454571D02*
X130666601Y-84469809D01*
X130666601Y-84469809D02*
X130681840Y-84485047D01*
X130681840Y-84485047D02*
X130697078Y-84515523D01*
X130697078Y-84515523D02*
X130697078Y-84606952D01*
X130697078Y-84606952D02*
X130681840Y-84637428D01*
X130681840Y-84637428D02*
X130666601Y-84652666D01*
D13*
%TO.C,D11*%
X166710000Y-83675000D02*
X166540000Y-83675000D01*
X166540000Y-82775000D02*
X166710000Y-82775000D01*
D14*
X168725000Y-83225000D02*
G75*
G02*
X168525000Y-83225000I-100000J0D01*
G01*
X168525000Y-83225000D02*
G75*
G02*
X168725000Y-83225000I100000J0D01*
G01*
D13*
%TO.C,D5*%
X124290000Y-59600000D02*
X124460000Y-59600000D01*
X124460000Y-60500000D02*
X124290000Y-60500000D01*
D14*
X122475000Y-60050000D02*
G75*
G02*
X122275000Y-60050000I-100000J0D01*
G01*
X122275000Y-60050000D02*
G75*
G02*
X122475000Y-60050000I100000J0D01*
G01*
D15*
%TO.C,R14*%
X165195276Y-62118889D02*
X165704724Y-62118889D01*
X165195276Y-63163889D02*
X165704724Y-63163889D01*
%TO.C,R13*%
X174595276Y-62218889D02*
X175104724Y-62218889D01*
X174595276Y-63263889D02*
X175104724Y-63263889D01*
%TO.C,R12*%
X132045276Y-69067500D02*
X132554724Y-69067500D01*
X132045276Y-70112500D02*
X132554724Y-70112500D01*
%TO.C,R11*%
X127932776Y-59317500D02*
X128442224Y-59317500D01*
X127932776Y-60362500D02*
X128442224Y-60362500D01*
%TO.C,R10*%
X147172500Y-76486665D02*
X147172500Y-76996113D01*
X146127500Y-76486665D02*
X146127500Y-76996113D01*
%TO.C,R9*%
X159122936Y-82006389D02*
X159577064Y-82006389D01*
X159122936Y-83476389D02*
X159577064Y-83476389D01*
%TO.C,R8*%
X150932776Y-77618889D02*
X151442224Y-77618889D01*
X150932776Y-78663889D02*
X151442224Y-78663889D01*
%TO.C,R7*%
X150932776Y-75118889D02*
X151442224Y-75118889D01*
X150932776Y-76163889D02*
X151442224Y-76163889D01*
%TO.C,R6*%
X179035436Y-66906389D02*
X179489564Y-66906389D01*
X179035436Y-68376389D02*
X179489564Y-68376389D01*
%TO.C,R5*%
X179035436Y-69906389D02*
X179489564Y-69906389D01*
X179035436Y-71376389D02*
X179489564Y-71376389D01*
%TO.C,R4*%
X120077500Y-63044724D02*
X120077500Y-62535276D01*
X121122500Y-63044724D02*
X121122500Y-62535276D01*
%TO.C,R3*%
X119027064Y-74125000D02*
X118572936Y-74125000D01*
X119027064Y-72655000D02*
X118572936Y-72655000D01*
%TO.C,R2*%
X122785000Y-92672936D02*
X122785000Y-93127064D01*
X121315000Y-92672936D02*
X121315000Y-93127064D01*
%TO.C,R1*%
X119385000Y-92635436D02*
X119385000Y-93089564D01*
X117915000Y-92635436D02*
X117915000Y-93089564D01*
%TO.C,C21*%
X164658767Y-68351389D02*
X164366233Y-68351389D01*
X164658767Y-67331389D02*
X164366233Y-67331389D01*
%TO.C,C20*%
X164673752Y-66326389D02*
X164151248Y-66326389D01*
X164673752Y-64856389D02*
X164151248Y-64856389D01*
%TO.C,C19*%
X166560000Y-70870122D02*
X166560000Y-71162656D01*
X165540000Y-70870122D02*
X165540000Y-71162656D01*
%TO.C,C18*%
X163785000Y-70755137D02*
X163785000Y-71277641D01*
X162315000Y-70755137D02*
X162315000Y-71277641D01*
%TO.C,C17*%
X169435000Y-58945122D02*
X169435000Y-59237656D01*
X168415000Y-58945122D02*
X168415000Y-59237656D01*
%TO.C,C16*%
X179435000Y-58945122D02*
X179435000Y-59237656D01*
X178415000Y-58945122D02*
X178415000Y-59237656D01*
%TO.C,C15*%
X155746267Y-79201389D02*
X155453733Y-79201389D01*
X155746267Y-78181389D02*
X155453733Y-78181389D01*
%TO.C,C14*%
X158165000Y-77552641D02*
X158165000Y-77030137D01*
X159635000Y-77552641D02*
X159635000Y-77030137D01*
%TO.C,C13*%
X155453733Y-75181389D02*
X155746267Y-75181389D01*
X155453733Y-76201389D02*
X155746267Y-76201389D01*
%TO.C,C12*%
X173110000Y-82395122D02*
X173110000Y-82687656D01*
X172090000Y-82395122D02*
X172090000Y-82687656D01*
%TO.C,C11*%
X171110000Y-82395122D02*
X171110000Y-82687656D01*
X170090000Y-82395122D02*
X170090000Y-82687656D01*
%TO.C,C10*%
X132141233Y-71030000D02*
X132433767Y-71030000D01*
X132141233Y-72050000D02*
X132433767Y-72050000D01*
%TO.C,C9*%
X121390000Y-66436267D02*
X121390000Y-66143733D01*
X122410000Y-66436267D02*
X122410000Y-66143733D01*
%TO.C,C8*%
X116965000Y-63001252D02*
X116965000Y-62478748D01*
X118435000Y-63001252D02*
X118435000Y-62478748D01*
%TO.C,C7*%
X118078733Y-69130000D02*
X118371267Y-69130000D01*
X118078733Y-70150000D02*
X118371267Y-70150000D01*
%TO.C,C6*%
X132091233Y-73180000D02*
X132383767Y-73180000D01*
X132091233Y-74200000D02*
X132383767Y-74200000D01*
%TO.C,C5*%
X121611252Y-87075000D02*
X121088748Y-87075000D01*
X121611252Y-85605000D02*
X121088748Y-85605000D01*
%TO.C,C4*%
X126278733Y-79630000D02*
X126571267Y-79630000D01*
X126278733Y-80650000D02*
X126571267Y-80650000D01*
%TO.C,C3*%
X126238748Y-76655000D02*
X126761252Y-76655000D01*
X126238748Y-78125000D02*
X126761252Y-78125000D01*
%TO.C,C2*%
X124730000Y-84286267D02*
X124730000Y-83993733D01*
X125750000Y-84286267D02*
X125750000Y-83993733D01*
%TO.C,C1*%
X127015000Y-84401252D02*
X127015000Y-83878748D01*
X128485000Y-84401252D02*
X128485000Y-83878748D01*
D14*
%TO.C,U3*%
X167512500Y-65651389D02*
G75*
G02*
X167312500Y-65651389I-100000J0D01*
G01*
X167312500Y-65651389D02*
G75*
G02*
X167512500Y-65651389I100000J0D01*
G01*
D13*
X174165000Y-71193889D02*
X170660000Y-71193889D01*
X174165000Y-64688889D02*
X174165000Y-71193889D01*
X170660000Y-71193889D02*
X170660000Y-64688889D01*
X170660000Y-64688889D02*
X174165000Y-64688889D01*
D15*
%TO.C,D12*%
X160250000Y-75291389D02*
X160250000Y-80791389D01*
X160250000Y-75291389D02*
X167250000Y-75291389D01*
X160250000Y-80791389D02*
X166800000Y-80791389D01*
X161050000Y-78941389D02*
X161050000Y-77141389D01*
X166450000Y-78941389D02*
X166450000Y-77141389D01*
X166800000Y-80791389D02*
X167250000Y-80341389D01*
X167250000Y-80341389D02*
X167250000Y-75291389D01*
D13*
%TO.C,D10*%
X171612500Y-77221389D02*
X172812500Y-77221389D01*
X172812500Y-78261389D02*
X171612500Y-78261389D01*
D14*
X170812500Y-77741389D02*
G75*
G02*
X170612500Y-77741389I-100000J0D01*
G01*
X170612500Y-77741389D02*
G75*
G02*
X170812500Y-77741389I100000J0D01*
G01*
D13*
%TO.C,SW3*%
X171825000Y-57471389D02*
X176025000Y-57471389D01*
X171825000Y-58591389D02*
X171825000Y-59591389D01*
X176025000Y-58591389D02*
X176025000Y-59591389D01*
X176025000Y-60711389D02*
X171825000Y-60711389D01*
D14*
X177125000Y-60191389D02*
G75*
G02*
X176925000Y-60191389I-100000J0D01*
G01*
X176925000Y-60191389D02*
G75*
G02*
X177125000Y-60191389I100000J0D01*
G01*
D13*
%TO.C,D7*%
X169787500Y-72241389D02*
X172637500Y-72241389D01*
X172637500Y-73941389D02*
X169787500Y-73941389D01*
D14*
X168312500Y-73091389D02*
G75*
G02*
X168112500Y-73091389I-100000J0D01*
G01*
X168112500Y-73091389D02*
G75*
G02*
X168312500Y-73091389I100000J0D01*
G01*
D13*
%TO.C,U4*%
X145450000Y-57291389D02*
X158650000Y-57291389D01*
X145450000Y-62671389D02*
X145450000Y-57291389D01*
X158650000Y-57291389D02*
X158650000Y-62671389D01*
D14*
X144900000Y-64291389D02*
G75*
G02*
X144700000Y-64291389I-100000J0D01*
G01*
X144700000Y-64291389D02*
G75*
G02*
X144900000Y-64291389I100000J0D01*
G01*
D15*
%TO.C,J3*%
X140670000Y-62871389D02*
X142050000Y-62871389D01*
X140670000Y-64251389D02*
X140670000Y-62871389D01*
X140670000Y-65521389D02*
X140670000Y-83411389D01*
X140670000Y-65521389D02*
X143430000Y-65521389D01*
X140670000Y-83411389D02*
X143430000Y-83411389D01*
X143430000Y-65521389D02*
X143430000Y-83411389D01*
D14*
%TO.C,J2*%
X174212500Y-81291389D02*
G75*
G02*
X174012500Y-81291389I-100000J0D01*
G01*
X174012500Y-81291389D02*
G75*
G02*
X174212500Y-81291389I100000J0D01*
G01*
D13*
X182712500Y-82561389D02*
X182712500Y-73621389D01*
X182712500Y-82561389D02*
X181282500Y-82561389D01*
X182712500Y-73621389D02*
X181282500Y-73621389D01*
X177262500Y-82561389D02*
X178942500Y-82561389D01*
X177262500Y-73621389D02*
X178942500Y-73621389D01*
%TO.C,D8*%
X171612500Y-75221389D02*
X172812500Y-75221389D01*
X172812500Y-76261389D02*
X171612500Y-76261389D01*
D14*
X170812500Y-75741389D02*
G75*
G02*
X170612500Y-75741389I-100000J0D01*
G01*
X170612500Y-75741389D02*
G75*
G02*
X170812500Y-75741389I100000J0D01*
G01*
D13*
%TO.C,SW4*%
X161825000Y-57471389D02*
X166025000Y-57471389D01*
X161825000Y-58591389D02*
X161825000Y-59591389D01*
X166025000Y-58591389D02*
X166025000Y-59591389D01*
X166025000Y-60711389D02*
X161825000Y-60711389D01*
D14*
X167125000Y-60191389D02*
G75*
G02*
X166925000Y-60191389I-100000J0D01*
G01*
X166925000Y-60191389D02*
G75*
G02*
X167125000Y-60191389I100000J0D01*
G01*
D13*
%TO.C,D9*%
X171612500Y-79221389D02*
X172812500Y-79221389D01*
X172812500Y-80261389D02*
X171612500Y-80261389D01*
D14*
X170812500Y-79741389D02*
G75*
G02*
X170612500Y-79741389I-100000J0D01*
G01*
X170612500Y-79741389D02*
G75*
G02*
X170812500Y-79741389I100000J0D01*
G01*
D16*
%TO.C,mouse-bite-3mm-slot*%
X139850000Y-69713000D02*
G75*
G02*
X136850000Y-69713000I-1500000J0D01*
G01*
X136850000Y-75713000D02*
G75*
G02*
X139850000Y-75713000I1500000J0D01*
G01*
D13*
%TO.C,D2*%
X133330000Y-85352500D02*
X133330000Y-84152500D01*
X134370000Y-84152500D02*
X134370000Y-85352500D01*
D14*
X133950000Y-83252500D02*
G75*
G02*
X133750000Y-83252500I-100000J0D01*
G01*
X133750000Y-83252500D02*
G75*
G02*
X133950000Y-83252500I100000J0D01*
G01*
%TO.C,U1*%
X117810000Y-85290000D02*
G75*
G02*
X117610000Y-85290000I-100000J0D01*
G01*
X117610000Y-85290000D02*
G75*
G02*
X117810000Y-85290000I100000J0D01*
G01*
D13*
X123252500Y-82042500D02*
X116747500Y-82042500D01*
X123252500Y-78537500D02*
X123252500Y-82042500D01*
X116747500Y-78537500D02*
X123252500Y-78537500D01*
X116747500Y-82042500D02*
X116747500Y-78537500D01*
D14*
%TO.C,SW2*%
X130725000Y-64565000D02*
G75*
G02*
X130525000Y-64565000I-100000J0D01*
G01*
X130525000Y-64565000D02*
G75*
G02*
X130725000Y-64565000I100000J0D01*
G01*
D13*
X135825000Y-66165000D02*
X135825000Y-65165000D01*
X131625000Y-66165000D02*
X131625000Y-65165000D01*
X135825000Y-67285000D02*
X131625000Y-67285000D01*
X131625000Y-64045000D02*
X135825000Y-64045000D01*
D14*
%TO.C,SW1*%
X122725000Y-64565000D02*
G75*
G02*
X122525000Y-64565000I-100000J0D01*
G01*
X122525000Y-64565000D02*
G75*
G02*
X122725000Y-64565000I100000J0D01*
G01*
D13*
X127825000Y-66165000D02*
X127825000Y-65165000D01*
X123625000Y-66165000D02*
X123625000Y-65165000D01*
X127825000Y-67285000D02*
X123625000Y-67285000D01*
X123625000Y-64045000D02*
X127825000Y-64045000D01*
D15*
%TO.C,J4*%
X115330000Y-57810000D02*
X115330000Y-75700000D01*
X112570000Y-75700000D02*
X115330000Y-75700000D01*
X112570000Y-57810000D02*
X115330000Y-57810000D01*
X112570000Y-57810000D02*
X112570000Y-75700000D01*
X112570000Y-56540000D02*
X112570000Y-55160000D01*
X112570000Y-55160000D02*
X113950000Y-55160000D01*
D14*
%TO.C,J1*%
X126900000Y-86902500D02*
G75*
G02*
X126700000Y-86902500I-100000J0D01*
G01*
X126700000Y-86902500D02*
G75*
G02*
X126900000Y-86902500I100000J0D01*
G01*
D13*
X125530000Y-95502500D02*
X134470000Y-95502500D01*
X125530000Y-95502500D02*
X125530000Y-94072500D01*
X125530000Y-90052500D02*
X125530000Y-91732500D01*
X134470000Y-95502500D02*
X134470000Y-94072500D01*
X134470000Y-90052500D02*
X134470000Y-91732500D01*
D15*
%TO.C,D6*%
X121550000Y-69290000D02*
X121550000Y-74790000D01*
X121550000Y-69290000D02*
X128550000Y-69290000D01*
X121550000Y-74790000D02*
X128100000Y-74790000D01*
X122350000Y-72940000D02*
X122350000Y-71140000D01*
X127750000Y-72940000D02*
X127750000Y-71140000D01*
X128100000Y-74790000D02*
X128550000Y-74340000D01*
X128550000Y-74340000D02*
X128550000Y-69290000D01*
D13*
%TO.C,U2*%
X135700000Y-57390000D02*
X134455000Y-57390000D01*
X135700000Y-56660000D02*
X135700000Y-57390000D01*
X117700000Y-57390000D02*
X118945000Y-57390000D01*
X117700000Y-56660000D02*
X117700000Y-57390000D01*
D14*
X116600000Y-39380000D02*
G75*
G02*
X116400000Y-39380000I-100000J0D01*
G01*
X116400000Y-39380000D02*
G75*
G02*
X116600000Y-39380000I100000J0D01*
G01*
D13*
X117700000Y-38610000D02*
X117700000Y-31890000D01*
X135700000Y-31890000D02*
X135700000Y-38610000D01*
X117700000Y-31890000D02*
X135700000Y-31890000D01*
%TO.C,D4*%
X131230000Y-85430000D02*
X131230000Y-84230000D01*
X132270000Y-84230000D02*
X132270000Y-85430000D01*
D14*
X131850000Y-83330000D02*
G75*
G02*
X131650000Y-83330000I-100000J0D01*
G01*
X131650000Y-83330000D02*
G75*
G02*
X131850000Y-83330000I100000J0D01*
G01*
%TO.C,D1*%
X123650000Y-89340000D02*
G75*
G02*
X123450000Y-89340000I-100000J0D01*
G01*
X123450000Y-89340000D02*
G75*
G02*
X123650000Y-89340000I100000J0D01*
G01*
D13*
X121975000Y-90190000D02*
X119125000Y-90190000D01*
X119125000Y-88490000D02*
X121975000Y-88490000D01*
%TO.C,D3*%
X129080000Y-85440000D02*
X129080000Y-84240000D01*
X130120000Y-84240000D02*
X130120000Y-85440000D01*
D14*
X129700000Y-83340000D02*
G75*
G02*
X129500000Y-83340000I-100000J0D01*
G01*
X129500000Y-83340000D02*
G75*
G02*
X129700000Y-83340000I100000J0D01*
G01*
%TD*%
M02*
